<svg id="svg2" xmlns:rdf="http://www.w3.org/1999/02/22-rdf-syntax-ns#" xmlns="http://www.w3.org/2000/svg" xml:space="preserve" height="250.09" viewBox="0 0 249.8625 250.0925" width="249.86" version="1.1" xmlns:cc="http://creativecommons.org/ns#" xmlns:dc="http://purl.org/dc/elements/1.1/"><defs id="defs6"><clipPath id="clipPath16" clipPathUnits="userSpaceOnUse"><path id="path18" d="m0 200.07h199.89v-200.07h-199.89v200.07z"/></clipPath></defs><g id="g10" transform="matrix(1.25 0 0 -1.25 0 250.09)"><g id="g12"><g id="g14" clip-path="url(#clipPath16)"><g id="g20" transform="translate(21.599 125.05)"><path id="path22" d="m0 0-0.309-0.163-2.075 0.308-0.48-1.376 2.797-0.978c0.398 0.514 1.206 1.626 1.73 3.122 0.366 1.047 0.679 2.565 0.42 3.698-0.302 1.298-1.159 1.865-1.879 2.117-0.928 0.325-1.637 0.069-2.016-0.15-0.611-0.357-1.154-1.092-1.405-1.759l-0.028 0.011c0.073 0.596 0.004 1.357-0.224 1.907-0.256 0.61-0.671 1.008-1.286 1.223-1.196 0.418-2.066-0.151-2.492-0.557-0.295-0.264-0.851-0.894-1.395-2.448-0.366-1.048-0.614-2.237-0.594-3.621l2.707-0.946 0.481 1.376-1.714 1.003-0.152 0.337c0.025 0.261 0.089 0.539 0.215 0.899 0.143 0.404 0.36 0.882 0.849 1.13 0.49 0.248 1.025 0.146 1.412 0.01 0.479-0.167 0.932-0.46 1.127-0.863 0.243-0.506 0.107-1.13-0.04-1.549-0.093-0.269-0.216-0.578-0.291-0.737l1.258-0.439c0.07 0.395 0.191 0.838 0.312 1.184 0.146 0.418 0.422 1.009 1.061 1.256 0.484 0.184 0.934 0.074 1.278-0.045 0.359-0.124 1.012-0.42 1.265-1.131 0.236-0.62 0.057-1.33-0.153-1.927-0.12-0.344-0.225-0.593-0.379-0.892" fill="#fff"/></g><g id="g24" transform="translate(22.319 147.16)"><path id="path26" d="m0 0c0.229 0.378 0.727 0.985 1.801 1.075 0.722 0.061 1.818-0.123 3.239-0.984 1.166-0.709 2.195-1.668 2.581-2.68 0.305-0.814 0.107-1.473-0.148-1.892-0.295-0.49-0.822-0.929-1.699-1.03-0.851-0.091-2.002 0.124-3.396 0.972-1.192 0.723-2.12 1.637-2.498 2.571-0.335 0.852-0.152 1.521 0.12 1.968m0.651-7.2c1.801-1.094 3.526-1.065 4.786-0.607 1.165 0.423 2.228 1.318 3.001 2.589 0.846 1.397 1.124 2.86 0.936 4.14-0.248 1.728-1.308 3.037-2.634 3.844-1.423 0.863-3.177 1.151-4.875 0.458-1.289-0.535-2.195-1.448-2.854-2.534-0.905-1.489-1.14-2.883-1.025-3.974 0.227-2.102 1.691-3.324 2.665-3.916" fill="#fff"/></g><g id="g28" transform="translate(33.007 161.37)"><path id="path30" d="m0 0 0.347 0.018c0.778-0.814 1.847-2.034 2.608-3.116 1.142-1.601 1.467-2.66 1.595-3.486l-1.442-0.132c-0.295-0.352-0.342-0.724-0.339-0.949 0.006-0.289 0.105-0.668 0.493-1.043 0.446-0.427 0.873-0.462 1.173-0.4 0.323 0.063 0.624 0.259 0.875 0.521 0.405 0.423 0.595 0.898 0.641 1.472 0.091 1.054-0.311 2.626-1.697 4.635-0.729 1.052-2.003 2.559-3.068 3.67l1.338 1.395 5.967-5.728 0.042-0.391-0.721-0.842 0.663-0.637 3.752 3.909-0.664 0.636-0.726-0.665-0.393 0.026-5.865 5.628 0.004 0.346 0.636 0.754-0.663 0.637-6.233-6.496 0.663-0.635 1.014 0.873z" fill="#fff"/></g><g id="g32" transform="translate(50.038 175.92)"><path id="path34" d="m0 0c0.37 0.244 1.08 0.577 2.088 0.198 0.679-0.256 1.588-0.892 2.502-2.281 0.747-1.14 1.264-2.447 1.178-3.526-0.078-0.866-0.538-1.377-0.948-1.646-0.477-0.312-1.14-0.482-1.974-0.197-0.81 0.282-1.753 0.97-2.65 2.334-0.764 1.165-1.208 2.389-1.147 3.394 0.061 0.915 0.515 1.438 0.951 1.724m1.555-9.379c1.234-0.119 2.576 0.232 3.821 1.048 1.362 0.895 2.239 2.099 2.621 3.333 0.52 1.668 0.127 3.302-0.727 4.6-0.911 1.391-2.37 2.402-4.203 2.508-1.39 0.071-2.602-0.365-3.661-1.06-1.457-0.956-2.268-2.114-2.633-3.147-0.698-1.995 0.097-3.726 0.723-4.68 1.156-1.761 2.725-2.474 4.059-2.602" fill="#fff"/></g><g id="g36" transform="translate(64.743 181.43)"><path id="path38" d="m0 0-0.393 1.903 0.183 0.275 1.435 0.55 2.968-7.717-0.172-0.389-0.969-0.44 0.331-0.856 5.175 1.989-0.331 0.859-1.014-0.323-0.388 0.173-2.969 7.716 1.405 0.541 0.333-0.077 1-1.668 1.241 0.478-1.143 2.971-9.077-3.492 1.144-2.971 1.241 0.478z" fill="#fff"/></g><g id="g40" transform="translate(83.617 187.83)"><path id="path42" d="m0 0 1.877-3.22-2.494-0.446 0.617 3.666zm0.194-8.22-0.161 0.906-1.016-0.07-0.191 0.16 0.368 2.447 3.321 0.593l1.243-2.177-0.089-0.226-1.046-0.267 0.16-0.903 5.053 0.901-0.162 0.905-0.973-0.046-5.313 8.869-2.248-0.401-1.862-10.21-1.004-0.244 0.163-0.906 3.757 0.669z" fill="#fff"/></g><g id="g44" transform="translate(102.23 190.35)"><path id="path46" d="m0 0c0.425 0.332 0.869 0.364 1.345 0.348l0.823-0.029-0.136-3.864-0.396 0.013c-0.428 0.015-1.156 0.01-1.696 0.472-0.323 0.282-0.622 0.768-0.593 1.575 0.014 0.445 0.131 1.058 0.653 1.485m-1.283-8.502 1.237 2.669c0.05 0.107 0.309 0.654 0.634 0.929 0.359 0.288 0.708 0.307 1.058 0.294l0.349-0.013-0.118-3.325-0.264-0.292-1.048-0.026-0.032-0.918 5.353-0.188 0.031 0.918-0.98 0.099-0.243 0.309 0.286 8.123 0.263 0.228 0.985 0.03 0.033 0.919-5.749 0.202c-0.983 0.033-2.093 0.027-2.971-0.608-0.504-0.379-1.053-1.073-1.089-2.134-0.036-0.981 0.387-1.583 0.756-1.913 0.491-0.447 1.275-0.712 2.005-0.737l-0.003-0.032c-0.608-0.139-1.046-0.44-1.309-0.715-0.098-0.108-0.412-0.445-0.887-1.347l-0.902-1.713-0.296-0.292-1.045-0.025-0.035-0.919 3.959-0.141 0.022 0.618z" fill="#fff"/></g><g id="g48" transform="translate(128.36 177.24)"><path id="path50" d="m0 0 1.403 3.688c0.273-0.039 0.537-0.103 0.848-0.222 0.415-0.157 0.844-0.373 1.083-0.854 0.338-0.669 0.125-1.319-0.044-1.761-0.186-0.491-0.416-0.961-0.97-1.208-0.577-0.273-1.145-0.124-1.65 0.067-0.193 0.074-0.417 0.159-0.67 0.29m4.357-1.912c0.957 0.329 1.429 1.082 1.685 1.748 0.394 1.038 0.3 1.902-0.259 2.71-0.576 0.847-1.566 1.359-2.472 1.703-0.445 0.169-1.067 0.357-1.513 0.475l1.211 3.184 2.755-1.048 0.169-0.268-0.445-1.884 1.392-0.529 1.132 2.977-8.425 3.206-0.328-0.857 0.912-0.416 0.152-0.311-2.89-7.598-0.346-0.192-0.956 0.298-0.324-0.86 5.447-2.074c1.288-0.491 2.36-0.525 3.103-0.264" fill="#fff"/></g><g id="g52" transform="translate(147.46 175.63)"><path id="path54" d="m0 0-0.802-3.641-2.137 1.366 2.939 2.275zm-4.934-5.396-0.796 0.639-0.03 0.245 1.931 1.549 2.843-1.818-0.565-2.44-0.22-0.105-0.948 0.513-0.496-0.774 4.324-2.764 0.495 0.773-0.748 0.627 2.11 10.118-1.92 1.229-8.295-6.236-0.901 0.5-0.496-0.776 3.216-2.054 0.496 0.774z" fill="#fff"/></g><g id="g56" transform="translate(153.71 160.78)"><path id="path58" d="m0 0c0.416-0.415 0.887-0.614 1.459-0.668 1.054-0.108 2.635 0.268 4.665 1.62 1.063 0.711 2.594 1.962 3.722 3.006l1.372-1.36-5.826-5.873-0.393-0.036-0.832 0.738-0.647-0.653 3.847-3.816 0.647 0.65-0.653 0.74 0.032 0.39 5.728 5.772 0.346-0.01 0.74-0.648 0.649 0.653-6.389 6.341-0.648-0.654 0.857-1.028 0.012-0.347c-0.827-0.765-2.066-1.812-3.161-2.556-1.621-1.116-2.684-1.422-3.512-1.537l-0.108 1.445c-0.348 0.302-0.718 0.355-0.941 0.354-0.291 0-0.673-0.092-1.053-0.475-0.434-0.439-0.477-0.865-0.421-1.166 0.058-0.324 0.249-0.627 0.508-0.882" fill="#fff"/></g><g id="g60" transform="translate(173.88 152.53)"><path id="path62" d="m0 0-6.836-4.391-0.39 0.051-0.619 0.846-0.771-0.498 2.86-4.451 0.773 0.498-0.444 0.807 0.115 0.375 2.999 1.926 0.23-0.36c0.121-0.185 0.243-0.464 0.176-0.828-0.063-0.342-0.289-0.693-0.487-0.972l-1.848-2.656-0.521-0.336 2.243-3.491 0.774 0.498-0.52 0.984 0.05 0.389 1.269 1.984c0.238 0.36 0.564 0.965 0.677 1.696 0.09 0.622 0.011 1.099-0.171 1.529l0.027 0.016c0.431-0.287 0.938-0.376 1.858-0.197l1.355 0.265c0.238 0.041 0.388 0.1 0.751 0.09l-0.23-1.692c0.5-0.602 1.299-0.672 1.938-0.261 0.374 0.238 0.532 0.547 0.601 0.821 0.08 0.313 0.089 0.77-0.288 1.356-0.291 0.454-0.646 0.715-1.097 0.857-0.694 0.233-1.366 0.103-1.937-0.001l-1.622-0.29c-0.392-0.063-0.794-0.113-1.134 0.007-0.384 0.127-0.604 0.44-0.722 0.627l-0.385 0.601 2.85 1.832 0.337-0.085 0.55-0.738 0.773 0.496-2.859 4.45-0.774-0.497 0.511-0.912-0.062-0.345z" fill="#fff"/></g><g id="g64" transform="translate(183.24 132.19)"><path id="path66" d="m0 0-2.826-2.431-0.892 2.373 3.718 0.058zm-8.529 2.214-0.862-0.323 1.342-3.575 0.863 0.322-0.253 0.99 0.121 0.214 2.473 0.083 1.187-3.16-1.915-1.616-0.237 0.048-0.454 0.981-0.861-0.325 1.805-4.805 0.86 0.324-0.22 0.949 7.754 6.836-0.8 2.137-10.383-0.025-0.42 0.945z" fill="#fff"/></g><g id="g68" transform="translate(99.948 4.1972)"><path id="path70" d="m0 0c-52.795 0-95.743 43.042-95.743 95.936 0 52.793 42.948 95.735 95.743 95.735 52.783 0 95.726-42.942 95.726-95.735 0-52.893-42.943-95.935-95.726-95.935m0 195.88c-55.111 0-99.948-44.841-99.948-99.941 0-55.209 44.837-100.13 99.948-100.13 55.104 0 99.941 44.924 99.941 100.13 0 55.1-44.837 99.941-99.941 99.941" fill="#fff"/></g><g id="g72" transform="translate(131.85 138.21)"><path id="path74" d="m0 0c-0.03-0.049-0.117-0.186-0.214-0.335 0.063 0.095 0.131 0.204 0.214 0.335" fill="#fff"/></g><g id="g76" transform="translate(143.52 77.896)"><path id="path78" d="m0 0c0.1-0.066 0.047-0.029 0 0" fill="#fff"/></g><g id="g80" transform="translate(40.259 89.795)"><path id="path82" d="m0 0c0.028 0.226 0.044 0.367 0.053 0.442-0.014-0.115-0.04-0.325-0.053-0.442" fill="#fff"/></g><g id="g84" transform="translate(95.204 144.71)"><path id="path86" d="m0 0c-0.105 0.007-2.586 0.191-4.27 1.314-0.391 0.261-0.811 0.497-1.288 0.726-2.506 1.202-4.793 0.955-6.547-0.604-0.153-0.139-0.291-0.275-0.423-0.417-0.077-0.083-0.122-0.195-0.122-0.312 0.001-0.077 0.021-0.157 0.054-0.237 0.103-0.239 0.328-0.404 0.564-0.414 0.109 0 0.212 0.043 0.299 0.127 0.213 0.209 0.55 0.514 1.022 0.76 0.037 0.021 0.078 0.039 0.119 0.057l0.14 0.062c0.031 0.016 0.064 0.03 0.097 0.045 0.227 0.085 0.484 0.152 0.763 0.195 0.237 0.034 0.429 0.051 0.624 0.053 0.254 0 0.52-0.023 0.794-0.066 0.937-0.151 1.988-0.565 3.116-1.227 0.385-0.225 0.821-0.426 1.298-0.602 1.335-0.495 2.814-0.717 3.691-0.717h0.095c0.087 0.007 0.165 0.037 0.238 0.093 0.134 0.102 0.212 0.29 0.209 0.5-0.003 0.251-0.094 0.468-0.246 0.579-0.068 0.047-0.141 0.076-0.227 0.085" fill="#fff"/></g><g id="g88" transform="translate(85.918 143.92)"><path id="path90" d="m0 0c0.478 0 1.041-0.223 1.771-0.7-0.707-0.624-1.305-0.756-1.686-0.756-0.619 0-1.071 0.346-1.196 0.688-0.001 0.011-0.003 0.021-0.003 0.028 0.021 0.361 0.588 0.65 0.871 0.717 0.07 0.015 0.15 0.023 0.243 0.023m3.745-0.111c-0.776 0.468-2.288 1.254-3.695 1.256-0.227 0-0.434-0.019-0.633-0.06-0.917-0.183-1.638-0.667-2.146-1.44-0.094-0.141-0.145-0.306-0.145-0.477 0-0.208 0.076-0.411 0.213-0.58 0.598-0.672 1.698-1.39 3.012-1.393 0.38 0.006 0.979 0.227 1.779 0.667 0.577 0.328 0.898 0.531 1.063 0.671 0.305-0.142 1.403-0.635 2.011-0.637 0.125 0.001 0.3 0.021 0.406 0.162 0.031 0.042 0.047 0.09 0.045 0.155-0.048 0.477-1.35 1.33-1.91 1.676" fill="#fff"/></g><g id="g92" transform="translate(88.534 140.52)"><path id="path94" d="m0 0c-0.091 0.016-0.183 0.022-0.304 0.029-0.061 0.004-0.214 0.013-0.417 0.013-0.943-0.001-2.673-0.192-3.666-1.441-0.36-0.457-0.543-1.044-0.543-1.748 0-0.545 0.117-1.153 0.336-1.756 0.086-0.214 0.258-0.35 0.448-0.35h0.001c0.223 0 0.386 0.199 0.386 0.472 0.003 1.119 0.407 1.865 0.746 2.294 0.784 1.004 2.656 1.467 2.681 1.473l0.17 0.046c0.417 0.114 0.627 0.169 0.735 0.404 0.018 0.036 0.028 0.079 0.026 0.143-0.031 0.225-0.232 0.369-0.599 0.421" fill="#fff"/></g><g id="g96" transform="translate(99.943 23.927)"><path id="path98" d="m0 0c-41.967 0-76.11 34.142-76.11 76.11 0 1.291 0.042 2.584 0.105 3.874 0.21-0.305 0.417-0.585 0.609-0.806 0.864-0.997 1.87-1.706 2.922-2.214l-0.587 0.01c-0.004-0.292-0.005-0.586-0.005-0.882 0-19.516 7.599-37.865 21.399-51.665 0 0 0.303-0.281 0.577-0.541l101.4 0.02c0.064 0.06 0.125 0.125 0.19 0.189l0.12-0.125c1.627 1.579 3.17 3.256 4.636 4.969 2.838 0.839 5.193 2.422 6.331 4.36 1.215 2.071 2.766 3.48 4.08 4.399-13.232-22.532-37.703-37.698-65.667-37.698m-72.753 93.451c0.682 0.568 1.322 0.95 1.918 1.204-0.592-2.266-1.08-4.568-1.451-6.872-0.424-2.652-0.698-5.349-0.83-8.044-0.271 0.225-0.532 0.469-0.773 0.747-1.673 1.925-4.399 8.356 1.136 12.965m72.753 58.769c13.817 0 26.773-3.719 37.953-10.181-0.196 0.018-0.387 0.044-0.588 0.054-1.641 0.079-3.138-0.205-4.409-0.779-10.145 5.131-21.513 7.846-32.956 7.846-24.159 0-46.63-11.872-60.291-31.793-1.002 0.148-2.052 0.493-2.88 1.204 14.2 21.111 37.648 33.649 63.171 33.649m52.549-121.9c-2.661-0.31-7.564-0.669-12.694 3.219-0.292 0.219-0.288 0.612 0.027 0.586 0.217-0.011 0.445-0.025 0.679-0.025 0.747 0 1.54 0.092 2.327 0.344 0.257 0.088 0.444 0.313 0.479 0.584 0.025 0.268-0.107 0.536-0.346 0.669-0.052 0.031-4.489 2.598-6.907 5.966-0.195 0.272-0.066 0.707 0.196 0.654 1.033-0.218 2.295-0.339 3.572-0.117 0.189 0.034 0.713-0.305 0.848-0.596 1.644-3.509 4.365-5.919 6.768-6.48 2.844-0.672 5.574 0.933 7.112 4.19 3.312 7.021-2.433 14.365-8.049 21.934-1.564 2.111-3.183 4.3-4.596 6.474-5.446 8.377-3.476 14.655 0.185 17.732 1.778 1.5 4.263 2.158 6.26 2.69 1.162 0.311 2.164 0.581 2.863 0.959 0.89 0.489 1.696 1.253 2.31 1.942 0.109 0.126 0.32 0.044 0.319-0.118-0.007-0.504-0.076-0.988-0.14-1.341-0.029-0.133-0.371-0.507-0.509-0.515-0.852-0.019-1.818-0.429-1.772-0.754 0.048-0.375 0.384-0.397 0.754-0.349 0.086 0.013 1.742-0.026 3.467-1.122 0.143-0.088 0.135-0.403-0.032-0.456-0.747-0.233-1.764-0.745-2.947-0.609-0.366 0.046-0.645 0.176-0.685-0.203-0.045-0.374 0.403-0.324 0.968-0.605 0.305-0.153 1.881-1.012 2.78-2.365 0.124-0.186 0.019-0.544-0.179-0.517-1.633 0.18-4.364 0.662-6.083 2.475-0.255 0.274-0.563 0.478-0.837 0.215-0.276-0.261-0.113-0.586 0.145-0.864 0.584-0.617 1.077-1.223 1.767-1.625 0.127-0.272 0.699-1.633 0.387-3.237-0.041-0.196-0.318-0.282-0.409-0.119-0.606 1.089-1.544 2.357-2.819 2.969-0.222 0.107-0.481 0.086-0.689-0.051-0.184-0.129 0.399-2.221-1.591-3.371-0.91-0.527-1.29-0.235-0.612 0.807 0.793 1.224 0.443 2.739-0.238 3.287-0.306 0.242-1.212 0.567-1.987-0.033-1.675-1.304-2.92-4.58-1.46-8.228 1.542-3.844 5.688-9.486 9.418-14.525 3.177-4.294 6.479-8.356 6.968-10.126 0.09-0.315 0.396-0.519 0.696-0.502 0.319 0.009 0.59 0.238 0.649 0.554 0.091 0.474 0.305 1.309 0.626 2.214 0.127 0.361 0.394 0.005 0.419-0.548 0.029-0.822 0.144-1.629 0.389-2.268 0.761-1.979 0.926-4.47 0.926-4.497 0.021-0.285 0.213-0.526 0.491-0.61 0.277-0.088 0.576 0.013 0.751 0.235 0 0.004 0.226 0.294 0.677 0.649 0.16 0.121 0.366-0.117 0.26-0.392-0.304-0.835-0.599-1.77-0.801-2.627-0.049-0.091-0.094-0.181-0.143-0.269l0.072-0.04c-0.097-0.468-0.17-0.915-0.17-1.278 0-0.206 0.091-0.402 0.253-0.535 0.16-0.128 0.376-0.181 0.575-0.139 0.405 0.088 1.211 0.193 2.086 0.161 0.309-0.007 0.206-0.497 0.206-0.497-1.556-0.981-3.899-2.421-5.448-5.069-1.037-1.761-3.491-3.417-7.532-3.887m-13.725-1.724c-0.944 1.494-1.398 3.217-1.607 4.598-0.041 0.303 0.267 0.505 0.462 0.345 3.33-2.918 6.617-4.293 9.415-4.877l-8.27-0.066zm-53.845 4.016c0.291-0.513 0.537-0.908 0.556-0.944 0.136-0.233 0.391-0.36 0.666-0.33 0.267 0.031 0.489 0.212 0.581 0.467 0.412 1.242 0.631 3.956 0.748 5.904 0.411-0.822 0.704-1.553 0.713-1.567 0.095-0.241 0.316-0.405 0.579-0.428 0.264-0.019 0.509 0.098 0.647 0.325 0.952 1.545 0.972 4.51 0.879 6.394 0.641-0.64 1.265-1.396 1.557-1.763 0.158-0.202 0.41-0.296 0.663-0.249 0.258 0.043 0.457 0.228 0.536 0.469 0.604 1.95-0.079 5.019-0.577 6.755 1.529-0.557 3.172-1.329 3.19-1.334 0.222-0.11 0.482-0.086 0.685 0.049 0.2 0.144 0.314 0.385 0.3 0.625-0.1 1.183-0.514 2.626-0.886 3.722 0.786-0.428 1.506-0.859 1.793-1.036 0.327-0.453 0.74-0.36 0.873-0.306 0.652 0.238 0.482 0.914 0.302 1.62-0.19 0.761-0.766 2.042-1.255 3.048 0.956-0.169 1.885-0.173 2.048-0.173 0.292 0 0.54 0.189 0.641 0.465 0.094 0.272 0 0.59-0.234 0.773-0.143 0.123-0.421 0.621-0.722 1.285 1.22-0.334 2.391-0.257 2.465-0.255 0.282 0.021 0.523 0.205 0.613 0.479 0.084 0.263 0 0.558-0.214 0.74-0.25 0.202-0.485 0.683-0.689 1.249 1.655-1.015 3.546-1.454 3.653-1.482l0.097-0.001 0.057-0.015 0.031 0.008 0.214 0.042 0.029 0.008 0.215 0.148 0.02 0.013 0.021 0.039 0.073 0.099 0.025 0.059 0.034 0.083 0.025 0.16v0.086l-0.043 0.163-0.016 0.075-0.139 0.195c-0.257 0.261-0.588 0.715-0.884 1.184 2.155-0.493 5.017-0.622 6.611-0.654-0.08-0.176-0.156-0.353-0.222-0.551l-0.196-0.67c-1.271-4.382 0.636-8.184 2.449-10.15 1.722-1.86 1.602-4.98 1.602-5.008-0.015-0.252 0.112-0.492 0.325-0.62 0.217-0.133 0.481-0.135 0.702-0.014 1.011 0.577 1.582 1.435 1.906 2.278 0.071 0.194 0.344 0.141 0.411-0.074 0.689-2.152 0.548-4.444 0.545-4.474-0.019-0.254 0.103-0.501 0.327-0.634 0.219-0.135 0.496-0.138 0.712-0.004 0.982 0.594 1.82 1.943 2.392 3.11 0.083 0.175 0.37 0.142 0.428-0.042 0.511-1.621 0.677-3.325 0.679-3.353 0.024-0.253 0.186-0.472 0.418-0.571 0.24-0.096 0.515-0.059 0.71 0.107 0.184 0.157 0.347 0.324 0.501 0.492 0.096 0.043 0.177 0.093 0.271 0.143 0.159-0.011 0.357-0.116 0.405-0.252 0.568-1.576 0.618-2.746 0.152-3.559-0.66-1.171-2.533-1.858-5.709-2.088-6.922-0.505-11.962 3.229-12.012 3.268-0.128 0.098-0.284 0.144-0.45 0.137-2.721-0.135-4.63-0.885-5.68-2.233-0.7-0.891-0.83-1.834-0.834-2.407-1.066-0.625-1.477-1.823-1.615-2.915h-15.863c0.499 1.146 0.9 2.687 1.165 3.89m-3.54-3.845 0.031-0.045h-0.1c0.021 0.015 0.049 0.031 0.069 0.045m-20.896 28.426c-0.879-0.159-1.638 0.106-1.852 0.64-0.321 0.803 0.009 1.158 0.115 1.271 0.313 0.332 0.941 0.582 1.788 0.582 0.467 0 0.995-0.071 1.571-0.252 0.261-0.086 0.523-0.217 0.778-0.388-0.566-1.13-2.4-1.853-2.4-1.853m-1.803 9.281c0.034 0.068 0.066 0.129 0 0m-0.049-0.088c-0.801-1.556-1.756-2.355-3.899-2.621-1.01-0.128-1.913 0.396-1.994 1.006-0.28 2.01 0.839 3.015 3.082 3.418 1.132 0.199 2.259-0.218 3.255-0.633-0.104-0.401-0.444-1.17-0.444-1.17m95.154 56.553c0.01-0.629-0.014-1.202-0.054-1.694-0.18-1.406-1.339-7.987-7.653-13.041-0.455-0.372-0.664 0.007-0.348 0.552 2.06 3.582 1.589 6.952 1.364 8.027 1.247 1.714 2.295 3.552 2.82 6.15 0.869 4.295-0.086 7.424-0.872 9.906-0.114 0.355 0.434 0.315 0.434 0.315 3.334-3.156 4.19-7.033 4.297-9.875l-0.157-0.138c0.057-0.067 0.11-0.136 0.169-0.202m-16.369-37.098c-0.03-0.011-2.81-0.764-5.696-0.951l-1.381-0.082c-2.922-0.18-5.459-0.339-7.412-0.714-0.289-0.059-0.428 0.272-0.223 0.499 1.038 1.139 2.262 2.256 4.52 2.535 6.987 0.403 12.102 1.749 15.252 4.017 0.243 0.181 0.464-0.252 0.464-0.252s0.097 0.254 0 0c-1.387-3.866-5.327-4.998-5.524-5.052m2.972-33.513c0.756 0.055 2.197 0.206 2.922 0.424 0.25 0.083 0.438 0.303 0.477 0.564 0.038 0.265-0.297 0.672-0.297 0.672-0.032 0.021-2.5 1.691-3.918 4.016 1.216-0.038 3.091-0.006 4.401 0.429 0.227 0.072 0.397 0.265 0.451 0.495 0.054 0.231-0.014 0.479-0.184 0.648-0.035 0.031-7.083 3.399-9.086 10.292-1.309 4.513-1.827 7.317-5.03 10.332 1.968 0.389 6.602 1.437 7.983 4.417 0.445 0.161 1.312 0.516 2.272 1.128-3.567-3.665-5.158-10.275 0.369-18.768 1.441-2.214 3.072-4.417 4.648-6.549 5.36-7.228 10.416-14.055 7.455-20.33-1.252-2.663-3.232-3.891-5.428-3.383-3.682 0.867-7.317 6.236-7.514 14.921-0.003 0.222 0.204 0.678 0.479 0.692m-10.093 29.009c-0.742 0.345-2.249 0.942-4.409 1.291-0.627 0.101-0.707 0.406 0.044 0.48 1.364 0.13 2.888 0.224 4.5 0.325l1.377 0.082c1.382 0.089 2.719 0.298 3.776 0.5 0.232 0.042 0.332-0.261 0.165-0.434-1.78-1.857-5.453-2.244-5.453-2.244m5.861 28.598-0.184-0.129c-2.004-1.426-4.739-2.786-8.452-3.942-0.571 0.226-1.904 0.714-3.426 1.004 1.426 0.576 3.284 1.21 5.009 1.45 0.285 0.034 0.518 0.252 0.58 0.538 0.058 0.286-0.065 0.57-0.312 0.728-0.063 0.039-1 0.608-2.44 1.054 1.701 0.697 4.928 3.666 4.928 3.666l0.087 0.224c4.421 0.717 7.395 2.289 8.99 4.134 0.142 0.164 0.409 0.087 0.403-0.142-0.033-2.025-0.854-5.433-5.183-8.585m1.939-6.155c-4.366-2.211-7.975-2.926-9.654-3.149-0.209-0.028-0.821 0.113-0.821 0.113-0.743 0.448-2.045 1.137-3.51 1.492-0.217 0.052-0.288 0.408-0.108 0.539 0.859 0.611 1.749 1.1 3.945 1.778 3.593 1.119 6.553 2.514 8.859 4.169 0.657 0.298 5.188 2.451 8.707 6.175 0.13 0.141 0.42 0.062 0.427-0.145 0.032-2.677-0.98-7.494-7.845-10.972m-11.174-5.052c-0.161-0.051-0.203-0.063 0 0m11.333-1.751c-5.009-2.574-9.421-2.674-10.821-2.634-0.907 0.55-2.883 1.495-5.549 1.381 1.216 1.032 6.199 3.382 6.199 3.382l0.208 0.115c1.616 0.183 5.541 0.856 10.429 3.328 0.584 0.302 1.124 0.61 1.635 0.923 0.045-0.011 3.03 1.312 4.597 2.243 0.171 0.097 0.424-0.124 0.398-0.367-0.237-1.993-1.519-5.52-7.096-8.371m5.847-2.098c-0.016-0.026-0.07-0.106-0.169-0.254 0.072 0.11 0.145 0.218 0.169 0.254m-0.361-0.54c-1.551-2.307-5.649-5.15-16.272-5.82-0.199-0.013-0.82 0.192-0.961 0.314-0.617 0.54-1.572 1.211-2.84 1.559-0.236 0.064-0.326 0.464-0.089 0.627 1.108 0.75 2.563 1.527 4.068 1.743 0.148 0.021 6.52 0.562 11.239 2.988 0.572 0.29 1.101 0.591 1.596 0.899 0.011 0 2.429 0.812 3.79 1.391 0.163 0.072 0.47-0.167 0.472-0.388 0.021-0.855-1.003-3.313-1.003-3.313m2.136 0.353s0.093 0.063 0.216 0.144c-0.068-0.046-0.135-0.088-0.216-0.144-0.183-0.122-0.387-0.039-0.33 0.105 0.643 1.489 0.629 2.825 0.513 3.658-0.022 0.172 0.184 0.59 0.31 0.664 1.642 0.949 2.932 1.943 3.908 2.833 0.182 0.161 0.444-0.039 0.399-0.284-0.652-3.603-4.8-6.976-4.8-6.976m0.894 11.794c-0.005 0.205 0.287 0.742 0.447 0.875 3.425 2.832 5.37 6.091 6.487 8.757 0.1 0.256 0.412-0.112 0.412-0.112 0.553-4.809-1.33-8.647-2.408-10.396l-0.114-0.132c-0.019-0.04-1.931-2.996-6.5-5.486-0.398-0.215-0.526 0.195-0.23 0.609 1.787 2.481 1.959 4.772 1.906 5.885m-93.984-20.497c-0.331 0.093-0.68 0.159-1.035 0.197-0.491 0.351-0.939 1.019-0.939 1.903 0 1.308 0.982 2.172 1.631 2.172s1.625-0.864 1.625-2.172c0-1.089-1.282-2.1-1.282-2.1m-2.623-3.811c0 1.17 0.529 2.089 1.105 2.375 0.438 0.19 0.906-0.003 1.121-0.295 0.399-0.434 0.71-1.188 0.71-2.08 0-1.42-1.469-2.481-1.469-2.481-0.69 0-1.467 1.061-1.467 2.481m-2.331-6.566c0.859 0.296 1.568 1.033 1.997 2.033 0.361-0.416 0.645-1.13 0.645-1.984 0-1.349-1.322-2.355-1.322-2.355-0.617 0-1.302 0.978-1.32 2.306m-2.638-6.497c0.903 0.565 1.591 1.576 1.872 2.796 0.604-0.287 1.058-1.104 1.058-2.052 0-1.17-1.517-2.162-1.517-2.162-0.639 0-1.196 0.601-1.413 1.418m-1.964-1.02c0.464-1.16 1.396-2.081 2.545-2.519 0.109-3.034-2.026-3.933-2.026-3.933-0.741 0-1.807 1.295-1.807 3.32 0 1.58 0.653 2.71 1.288 3.132m-1.936 4.845c0.064 0.565 0.154 1.11 0.422 1.568 0.476-0.279 1.013-0.436 1.599-0.436 0.709 0 1.352 0.234 1.897 0.638 0.351-0.494 0.482-1.123 0.55-1.77 0.407-4.016-4.468 0-4.468 0m-2.161-3.991c0.462 0.164 0.878 0.444 1.216 0.834 0.109 0.12 0.206 0.259 0.296 0.4 0.269-0.375 0.583-0.712 0.937-0.975-0.699-0.846-1.336-3.434-1.336-3.434-0.168 0.048-0.35 0.173-0.503 0.344-0.256 0.286-0.796 1.129-0.61 2.831m-1.425 6.152c0.593-0.308 1.264-0.481 1.983-0.481 0.417-2.384-0.238-3.226-0.543-3.476-0.165-0.144-0.346-0.209-0.55-0.209-0.397 0-1.304 2.491-1.304 2.491 0 0.694 0.182 1.258 0.414 1.675m7.286 3.037c0-1.523-0.496-2.503-1.808-2.523-1.502-0.031-1.455 1-1.455 2.523 0 1.525 0.417 2.239 1.629 2.352 1.126 0.027 1.634-2.352 1.634-2.352m3.923 1.624c0-1.505-0.359-2.631-1.647-2.675-1.351-0.048-1.515 1.17-1.515 2.675 0 1.495 0.226 2.397 1.582 2.417l0.013-0.003c1.067-0.017 1.567-2.414 1.567-2.414m0.205 15.89c0.044 0 0.11-0.004 0.238-0.008 0.569-0.015 0.995-0.832 0.995-2.203 0-1.373-0.35-2.15-0.995-2.209-0.688-0.061-0.989 0.836-0.989 2.209 0 1.371 0.989 2.203 0.989 2.203s-0.153 0.006-0.238 0.008m-1.297-6.772c1.141 0.025 1.713-1.004 1.713-2.571 0-1.573-0.69-2.637-1.713-2.574-1.021 0.065-1.71 1.001-1.71 2.574 0 1.567 1.71 2.571 1.71 2.571m-3.03 5.636c-0.113-0.003-0.157-0.004 0 0m0.354 0.008c0.961 0.023 1.653-0.879 1.653-2.496 0-1.626-0.53-2.566-1.653-2.498-1.289 0.077-1.649 0.872-1.649 2.498 0 1.617 1.649 2.496 1.649 2.496m-2.022-6.686c1.229 0.074 2.18-1.134 2.18-2.986 0-1.857-1.411-2.974-2.18-2.994-1.239-0.023-2.193 1.137-2.193 2.994 0 1.852 2.193 2.986 2.193 2.986m-1.79 5.559c0.966-0.093 1.287-1.081 1.287-2.714 0-1.631-0.598-2.745-1.287-2.713-0.969 0.047-1.28 1.082-1.28 2.713 0 1.633 1.28 2.714 1.28 2.714m-1.943-11.834c1.233 0.049 1.614-1.052 1.614-2.705 0-1.661-0.551-2.74-1.614-2.713-0.655 0.017-1.61 1.052-1.61 2.713 0 2.508 1.61 2.705 1.61 2.705m-3.011 10.416c0 1.131 0.909 1.882 0.909 1.882 0.357 0 0.912-0.751 0.912-1.882 0-1.132-0.555-1.879-0.912-1.879-0.367 0-0.909 0.747-0.909 1.879m1.309-4.601c0.771 0 1.634-1.002 1.634-2.349 0-1.344-0.863-2.353-1.634-2.353-0.767 0-1.63 2.353-1.63 2.353 0 1.347 0.863 2.349 1.63 2.349m24.398-8.287c-0.277 0.108-0.604 0.024-0.792-0.213l-0.809-1.025c-0.349 0.949-0.627 2.016-0.491 2.535 0.075 0.299-0.059 0.607-0.322 0.761-0.265 0.158-0.602 0.114-0.824-0.092l-0.93-0.89c-0.56 1.492-1.707 4.203-3.048 5.417 0.391 0.689 0.628 1.557 0.628 2.507 0 2.309-1.346 4.111-3.059 4.111l-0.149-0.011c0.08 0.395 0.127 0.813 0.127 1.25 0 0.472-0.054 0.922-0.15 1.345 0.755 0.202 1.47 0.053 1.848-0.076 1.865-6.717 4.925-6.872 5.062-6.659 0.202 0.318-0.107 0.424-0.399 0.67-0.974 0.813-2.352 1.933-3.396 6.647-0.043 0.204-0.182 0.378-0.369 0.466-0.066 0.037-1.568 0.764-3.236 0.247-0.279 0.498-0.637 0.903-1.041 1.183l0.028 0.046c1.379 2.407 4.091 1.715 4.944 1.427 0.551-1.42 2.968-7.512 5.309-11.028 2.105-3.153 6.799-4.29 9.163-4.436 0.18-0.015 0.433-0.397 0.403-0.571-0.273-1.844-0.327-4.254 0.387-7.248 0.06-0.253 0.26-0.453 0.512-0.511 0.252-0.06 0.52 0.03 0.69 0.229l0.689 0.836c0.026-1.538 0.194-3.792 0.755-6.245 0.049-0.214-0.172-1.166-0.172-1.166-0.265-0.908-0.632-0.112-0.75 0.19-0.366 0.916-0.734 1.902-0.869 2.458-0.074 0.271-0.289 0.47-0.561 0.511-0.277 0.043-0.555-0.082-0.695-0.315-0.225-0.357-0.576-0.947-0.906-1.567-0.085-0.153-0.468-0.012-0.578 0.239-0.507 1.139-0.972 2.413-0.972 3.233 0 0.284-0.174 0.542-0.44 0.643-0.266 0.098-0.573 0.031-0.762-0.183-0.094-0.108-0.333-0.386-0.598-0.746-0.099-0.128-0.434 0.095-0.51 0.355-0.202 0.757-0.364 1.531-0.364 2.116 0 0.258-0.142 0.492-0.374 0.614-0.232 0.118-0.504 0.094-0.716-0.054-0.137-0.097-0.52-0.38-0.927-0.771-0.12-0.115-0.497 0.102-0.559 0.355-0.231 0.876-0.403 1.885-0.336 2.72 0.021 0.302-0.158 0.584-0.441 0.696m76.967-25.005c-0.346 0.215-0.628 0.678-1.089 0.386-0.693-0.443-0.025-2.419 0.19-2.95 0.271-0.679 0.922-1.764 0.165-2.443-0.75-0.671-2.432 0.111-3.217 0.435-0.244 0.097-0.526 0.051-0.723-0.122-0.196-0.174-0.276-0.443-0.205-0.7 0.619-2.276 2.308-4.096 3.587-5.211-1.795 0.145-3.265 0.829-3.281 0.832-0.244 0.12-0.545 0.073-0.75-0.112-0.209-0.185-0.282-0.473-0.194-0.734 1.09-3.156 4.289-5.905 6.499-7.495 0.248-0.182 0.22-0.491-0.013-0.476-1.874 0.113-3.42 0.865-3.42 0.865l-0.146 0.057-0.033 0.004-0.147 0.013h-0.037l-0.184-0.037-0.009-0.012-0.155-0.081-0.017-0.011-0.126-0.131-0.022-0.027-0.046-0.079-0.018-0.051-0.021-0.043-0.035-0.184c-0.01-0.255-0.237-5.799 3.006-9.277-1.409-0.097-3.659-0.019-5.714 1.099-3.37 1.843-11.727 0.616-16.207-0.043-0.533-0.078-1.001-0.145-1.394-0.2-1.301-0.18-2.51 0.071-3.68 0.316-1.362 0.288-2.75 0.569-4.116 0.075 0.064 0.88 0.545 3.552 3.477 3.948 0.37 0.053 0.368 0.731 0 0.687-3.28-0.364-4.201-1.761-4.65-3.345-1.091 0.076-3.519 0.082-5.397-1.103 0.026 0.999 0.273 2.481 1.255 2.835 0.318 0.109 0.495 0.245 0.436 0.575-0.007 0.011-0.171 0.964 0.522 1.848 0.754 0.971 2.283 1.557 4.432 1.695 1.066-0.751 6.013-3.88 12.73-3.387 3.718 0.265 5.888 1.152 6.808 2.779 0.77 1.351 0.646 3.133-0.39 5.555 1.605 1.892 0.726 4.509 0.994 5.123 0.324 0.773 2.364-0.365 3.437-0.009 0.333 0.114 0.589 0.388 0.676 0.724 0.024 0.084 0.035 0.17 0.033 0.259 0 0.254-0.099 0.506-0.274 0.701-0.584 0.63-2.027 2.161-2.833 3.744-0.32 0.621-0.534 1.251-0.559 1.835-0.005 0.084-0.015 0.167-0.027 0.254-0.006 0.049-0.006 0.106-0.013 0.155-0.008 0.056-0.031 0.098-0.044 0.145-0.018 0.069-0.03 0.144-0.061 0.201-0.097 0.2-0.265 0.327-0.548 0.321-0.143-0.007-0.259-0.046-0.357-0.108-0.281-0.18-0.361-0.58-0.33-1.01 0.244-3.239 2.41-4.657 1.904-5.068-0.181-0.142-0.386-0.208-0.598-0.225-0.635-0.049-1.334 0.351-1.631 0.473-0.096 0.041-0.202 0.077-0.302 0.099-0.311 0.067-0.63 0.034-0.85-0.197-0.11-0.117-0.143-0.243-0.132-0.375 0.019-0.22 0.159-0.46 0.271-0.699 1.426-2.992-0.085-4.725-0.967-5.432-0.257 1.21-0.695 2.724-1.419 3.812-0.141 0.216-0.399 0.335-0.66 0.301-0.262-0.033-0.478-0.207-0.567-0.461-0.258-0.749-0.72-1.806-1.252-2.713-0.095-0.159-0.368-0.119-0.39 0.102-0.177 1.666-0.681 3.871-2.045 5.432-0.196 0.228-0.517 0.301-0.796 0.182-0.277-0.123-0.438-0.404-0.408-0.705 0.002-0.017 0.109-1.199-0.374-2.298-0.079-0.174-0.336-0.089-0.38 0.138-0.225 1.206-0.716 2.676-1.778 3.832-1.855 2.007-3.173 7.948-1.319 10.735l0.03 0.052c0.763 1.097 1.818 1.643 2.845 2.17 0.475 0.248 0.916 0.474 1.321 0.759 3.898 2.685 3.703 5.755 3.703 5.889 0 0.377-0.064 0.707-0.445 0.707-0.375 0-0.397-0.455-0.402-0.834 0-0.101-0.373-2.381-3.637-4.633-0.328-0.224-0.742-0.439-1.173-0.661-0.884-0.46-1.902-0.984-2.765-1.897-0.14-0.149-0.837-0.481-1.082-0.47-1.939 0.036-5.092 0.21-7.004 0.762-0.235 0.069-0.779 0.595-0.836 0.786-0.083 0.255-0.145 0.523-0.196 0.797-0.057 0.283 0.326 0.636 0.584 0.52 0.622-0.27 1.378-0.509 2.26-0.603 0.269-0.026 0.527 0.103 0.666 0.337 0.136 0.226 0.131 0.516-0.024 0.735-0.224 0.322-0.596 0.946-0.942 1.679 0.38-0.063 0.871-0.125 1.469-0.125 0.687 0 1.502 0.076 2.397 0.309 0.249 0.068 0.437 0.265 0.498 0.516 0.055 0.25-0.029 0.511-0.227 0.678-0.728 0.609-2.714 3.244-3.079 3.128-0.362-0.11 0.154-2.063 0.614-2.605 0.18-0.213 0.082-0.645-0.127-0.645-0.553-0.005-1.004 0.05-1.332 0.106-0.367 0.062-0.937 0.655-0.971 0.883-0.027 0.192-0.053 0.378-0.053 0.551 0 0.379-0.302 0.689-0.682 0.689-0.28 0-0.19-1.92 0.106-3.336 0.101-0.492-0.394-0.863-0.677-0.696-0.518 0.311-0.799 0.587-0.802 0.589-0.192 0.194-0.481 0.256-0.73 0.162-0.251-0.096-0.428-0.325-0.446-0.6-0.125-1.575 0.71-5.375 0.414-5.215-0.654 0.364-1.274 0.816-1.69 1.371-0.188 0.251-0.525 0.342-0.823 0.217-0.288-0.125-0.462-0.437-0.407-0.746 0.05-0.31 0.24-1.346 0.609-2.345 0.065-0.176-0.118-0.47-0.287-0.431-0.537 0.117-1.079 0.322-1.453 0.65-0.24 0.209-0.586 0.233-0.839 0.054-0.262-0.177-0.37-0.504-0.269-0.802 0.137-0.388 0.375-1.027 0.657-1.66 0.084-0.196-0.111-0.524-0.293-0.494-0.462 0.085-0.87 0.208-1.112 0.37-0.267 0.17-0.613 0.148-0.846-0.066-0.234-0.209-0.297-0.551-0.145-0.83 0.262-0.507 0.903-1.754 1.497-2.663 0.306-0.467 0.084-1.072-0.461-0.654-0.509 0.399-1.233 0.954-1.767 1.188-0.264 0.112-0.563 0.061-0.764-0.142-0.205-0.194-0.258-0.495-0.153-0.757 0.009-0.019 0.573-1.376 0.988-2.864 0.087-0.3-0.179-0.734-0.401-0.638-0.897 0.38-1.981 0.793-2.854 1.035-0.246 0.07-0.512-0.012-0.685-0.197-0.172-0.188-0.227-0.458-0.143-0.697 0.316-0.905 0.916-2.964 1.091-4.802 0.036-0.329-0.304-0.564-0.502-0.362-0.513 0.514-1.064 1.014-1.544 1.285-0.223 0.137-0.505 0.123-0.723-0.018-0.213-0.145-0.335-0.402-0.301-0.659 0.114-0.938 0.251-2.982 0.076-4.736-0.025-0.331-0.351-0.494-0.476-0.27-0.302 0.544-0.638 1.083-0.989 1.484-0.183 0.217-0.481 0.301-0.749 0.203-0.269-0.093-0.452-0.342-0.457-0.633-0.028-1.003-0.126-3.136-0.313-4.975-0.035-0.378-0.579-0.228-0.653-0.08-0.134 0.265-0.423 0.413-0.722 0.372-0.294-0.044-0.538-0.268-0.576-0.567-0.837-6.593-1.754-4.228-2.337-4.284-0.203-0.028-0.406-0.059-0.547-0.202-0.017-0.017-1.426-1.403-4.015-1.262-0.551 0.031-1.217 0.101-1.916 0.177-2.679 0.277-5.898 0.604-8.229-0.436h-0.156c0.041 0.305 0.141 0.627 0.379 0.87l0.05 0.065 0.071 0.108 0.047 0.116 0.024 0.083c0.008 0.027 0.511 2.811 3.037 3.313 5.401 0.207 6.358-1.647 6.462-0.51 0.097 1.016-6.375 1.888-6.541 1.888l-0.116-0.013c-2.913-0.532-3.862-3.134-4.116-4.089-0.361-0.191-0.966-0.534-1.565-0.999 0.19 0.75 0.534 1.486 1.109 1.908 0.136 0.104 0.229 0.246 0.269 0.419 0.028 0.139 0.754 3.347 4.112 5.017 1.156-0.802 5.362-2.996 8.984-0.581 4.357 2.904 4.736 12.256 3.448 16.934-0.555 2.016-1.651 5.181-2.305 7.049-1.658 4.721-1.096 6.965-0.536 8.238 0.181 0.43 0.588 0.508 0.653 0.242 0.307-1.228 0.692-2.548 1.118-3.447 0.112-0.242 0.357-0.395 0.622-0.395h0.041c0.283 0.017 0.523 0.199 0.615 0.466 0.008 0.029 0.528 1.561 1.101 2.985 0.096 0.256 0.507 0.339 0.617 0.129 0.392-0.711 0.87-1.453 1.334-1.918 0.183-0.19 0.46-0.249 0.704-0.168 0.249 0.085 0.431 0.3 0.463 0.562 0.144 1.037 0.583 3.439 1.279 5.276 0.11 0.292 0.529 0.396 0.62 0.148 0.126-0.362 0.238-0.776 0.332-1.216 0.048-0.246 0.227-0.445 0.464-0.516 0.248-0.082 0.508-0.018 0.688 0.161 0.287 0.271 2.076 2.321 3.154 4.347 0.118 0.225 0.672 0.088 0.785-0.155 0.426-0.898 1.139-2.159 1.436-2.095 0.368 0.08 0.429 0.357 0.353 0.725-0.451 2.12-1.821 4.064-1.876 4.145-0.165 0.239-0.477 0.345-0.758 0.265-0.28-0.084-0.474-0.339-0.493-0.631-0.054-1.162-0.781-2.798-1.754-4.017-0.24-0.295-0.919-0.79-1.182-0.143-0.392 0.933-0.756 1.542-0.777 1.581-0.117 0.186-0.318 0.303-0.543 0.318-0.217 0.007-0.435-0.079-0.572-0.252-0.957-1.169-1.611-3.312-2.011-5.057-0.085-0.374-0.484-0.61-0.6-0.384-0.327 0.61-0.582 1.192-0.724 1.504-0.088 0.238-0.322 0.403-0.583 0.419-0.252 0.018-0.502-0.116-0.636-0.333-0.364-0.612-0.807-1.668-1.2-2.676-0.093-0.257-0.463-0.123-0.547 0.199-0.482 1.83-0.809 3.681-0.814 3.699-0.056 0.319-0.323 0.554-0.643 0.572-0.318 0.016-0.61-0.192-0.697-0.508-0.154-0.554-1.129-4.603-2.205-3.982-0.586 0.336 0.127 2.559-0.701 2.74-0.824 0.184-1.266-1.935-1.661-0.715-0.747 2.294-0.85 5.091-0.666 7.499 0.022 0.3-0.152 0.576-0.429 0.689-0.276 0.115-0.598 0.03-0.784-0.2l-0.581-0.699s-0.452-1.014-0.529 0.322c-0.168 2.892 0.204 5.425 0.416 6.387l0.755 2.853c0.05 0.21 0.004 0.429-0.123 0.598-0.128 0.17-0.226 0.214-0.749 0.124-0.519-0.094-0.799 0.313-0.421 0.938 0.869 1.446 2.254 3.093 2.98 3.987 1.32 0.596 4.708 2.147 5.642 2.188 0.078 0.003 0.137-0.005 0.179-0.024 0.123-0.053 0.217-0.195 0.286-0.4 0.311-0.886 0.233-2.914 0.816-3.754 0.191-0.277 0.505-0.445 0.84-0.446h0.011c0.331 0 0.636 0.159 0.837 0.423 0.019 0.029 0.162 0.288 0.372 0.666 0.642 1.134 1.926 3.323 2.478 3.435 0.649 0.126 0.901-0.771 1.31-1.155 0.058-0.055 0.121-0.1 0.186-0.129 0.489-0.204 1.061-0.011 1.315 0.455 0.476 0.862 1.966 8.407 1.395 8.33-0.561-0.072-1.702-4.342-2.601-6.183-0.262 0.313-0.534 0.697-0.761 1.07-0.069 0.115-0.161 0.208-0.269 0.287-0.176 0.133-0.387 0.215-0.612 0.215h-0.001c-0.359 0-0.696-0.184-0.881-0.494-0.087-0.144-0.176-0.309-0.268-0.487-0.63-1.248-1.317-3.154-2.195-3.198-1.001-0.049 0.213 4.087-0.857 4.334-1.06 0.245-1.902-1.391-3.579-2.098-2.142-0.904-3.93-1.633-4.26-1.157-0.018 0.164 0.079 0.352 0.389 0.555 2.816 1.863 6.582 5.514 6.774 5.694 0.208 0.198 0.273 0.505 0.157 0.772-0.112 0.266-0.377 0.427-0.669 0.42 0 0-1.195-0.113-0.25 0.951 2.501 2.801 2.742 6.384 2.756 6.589 0.01 0.223-0.088 0.444-0.271 0.585-0.177 0.136-0.417 0.174-0.636 0.104-2.373-0.79-4.326-0.648-5.78-0.231-0.399 0.117-0.281 0.525 0.1 0.619 2.999 0.75 5.1 2.549 5.218 2.653 0.151 0.128 0.237 0.311 0.237 0.515 0.004 0.191-0.078 0.379-0.221 0.51-2.143 1.967-4.324 2.888-6.482 2.748-1.041-0.066-1.779-0.171-2.405-0.404-0.309-0.115-0.622 0.331-0.594 0.652 0.101 1.176 0.4 1.911 1.216 2.797 2.572 2.814 7.243 2.735 7.288 2.735 0.347 0 0.635 0.23 0.703 0.56 0.173 0.941 1.024 1.637 1.976 2.173 1.951 1.11 4.891 1.207 7.61 0.874-0.353-0.097-0.652-0.226-0.86-0.407-0.742-0.615-0.976-1.459-0.606-2.2 0.364-0.734 1.398-1.416 3.228-1.416 0.633 0 2.787 0.728 2.698 1.093-0.083 0.371-4.073-0.998-4.692 0.933-0.063 0.201 0.077 0.399 0.259 0.535 1.496 1.135 4.543 0.31 7.807-0.398 0.78-0.168 0.494-0.486 0.143-0.651-1.692-0.841-3.033-1.748-3.128-1.827-0.527-0.404-0.488-0.671 0-0.928 2.426-1.318 5.28-7.02 5.965-9.621 0.165-0.622-0.577-0.545-0.577-0.545l-1.254 0.708c-0.274 0.055-0.55-0.059-0.706-0.29-0.15-0.23-0.15-0.536 0-0.765 0.729-1.091 1.548-3.115 2.082-4.502 0.278-0.735-0.326-0.449-0.636-0.214-0.213 0.164-0.53 0.155-0.758 0.007-0.226-0.153-0.349-0.421-0.308-0.694 0.394-2.327 1.723-4.811 2.49-6.432 0.12-0.251-0.124-0.606-0.299-0.551-0.389 0.125-0.983 0.341-1.258 0.448-0.223 0.082-0.476 0.049-0.666-0.093-0.19-0.148-0.296-0.38-0.271-0.617 0.238-2.487 0.974-5.602 1.374-7.191-0.367 0.152-0.729 0.374-0.919 0.516-0.247 0.186-0.586 0.186-0.836-0.004-0.242-0.187-0.33-0.516-0.216-0.805 0.762-1.903 1.778-3.373 2.542-4.3 0.19-0.238 0.148-0.776-0.066-0.865-0.941-0.379-2.237-0.955-3.862-1.18-0.38-0.052-0.616-0.202-0.561-0.58 0.043-0.344 0.338-0.596 0.682-0.596l0.094 0.007c3.672 0.503 6.053 1.431 6.775 1.961 1.633 0.866 3.776 3.303 4.186 7.049 0.294 2.635-0.869 5.272-1.615 6.944-0.102 0.217-0.204 0.712-0.204 0.712l0.753-0.322c0.287-0.076 0.593 0.041 0.755 0.286 0.162 0.249 0.144 0.571-0.039 0.802-0.803 1.038-1.504 2.915-1.877 4.451-0.068 0.305 0.38 0.52 0.574 0.367 0.468-0.387 0.815-0.755 0.85-0.777 0.253-0.178 0.596-0.169 0.841 0.022 0.242 0.203 0.317 0.54 0.186 0.828-0.963 2.09-1.093 4.017-0.375 5.718 0.699 1.673 2.102 2.866 3.293 3.631 0.224 0.152 0.568 0.004 0.519-0.188-0.203-0.895-0.338-1.723-0.367-1.884-0.052-0.314 0.115-0.616 0.404-0.746 0.289-0.125 0.628-0.036 0.817 0.21 1.763 2.279 6.646 2.746 9.421 2.819 0.212 0.007 0.506-0.379 0.589-0.567 0.109-0.24 0.336-0.396 0.603-0.411 1.859-0.081 3.568-0.047 5.134 0.081 0.235 0.019 0.325-0.314 0.125-0.49-2.157-1.845-5.502-2.595-5.543-2.603-0.336-0.075-0.565-0.384-0.538-0.727s0.301-0.615 0.648-0.636c0.664-0.037 1.296-0.152 1.857-0.297 0.293-0.072 0.3-0.377 0.05-0.451-2.605-0.8-4.749-1.95-4.876-2.013-0.289-0.151-0.5-0.476-0.41-0.784 0.088-0.314 0.484-0.425 0.807-0.403 1.122 0.071 2.274-0.261 3.325-0.542 0.184-0.047 0.205-0.292 0.056-0.37-2.081-1.05-3.742-2.609-3.834-2.702-0.225-0.208-0.28-0.534-0.144-0.807 0.132-0.268 0.437-0.423 0.726-0.377 1.611 0.276 3.443-0.481 4.615-1.103-4.69-1.872-6.802-4.643-6.899-4.771-0.171-0.231-0.186-0.548-0.022-0.796 0.159-0.237 0.462-0.353 0.744-0.286 2.09 0.526 3.825 0.245 5.059-0.175 0.193-0.065 0.174-0.357-0.014-0.434-2.533-1.083-4.468-2.991-4.571-3.092-0.205-0.209-0.262-0.531-0.129-0.797 0.135-0.263 0.422-0.415 0.714-0.373 1.623 0.219 2.904-0.312 3.765-0.882 0.181-0.117 0.162-0.476 0.008-0.544-3.826-1.667-6.151-6.118-6.268-6.329-0.115-0.231-0.089-0.508 0.056-0.718 0.151-0.205 0.41-0.317 0.667-0.276 0.582 0.09 1.299 0.077 1.926-0.238 0.239-0.123 0.488-0.673 0-0.81-2.968-0.835-4.88-2.258-4.981-2.354-0.293-0.238-0.578-0.609-0.331-0.896 0.134-0.164 0.407-0.272 0.852 0.093 0.029 0.025 3.07 2.229 6.944 2.089 0.3-0.013 0.545 0.151 0.653 0.413 0.113 0.258 0.056 0.565-0.143 0.764-0.066 0.065-0.983 0.968-2.224 1.635-0.242 0.129-0.219 0.381 0.081 0.389 3.946 0.119 7.718-0.107 11.797-11.934 1.828-5.303 3.709-7.687 8.004-9.572 0.236-0.102 0.058-0.583-0.148-0.594-1.617-0.142-3.324 0.011-3.348 0.015-0.239 0.021-0.475-0.082-0.623-0.273-0.142-0.192-0.172-0.457-0.076-0.675 0.716-1.708 2.008-3.152 3.098-4.163 0.222-0.202-0.036-0.626-0.319-0.63-0.708-0.02-0.929 0.03-1.495 0.384m0.131-9.981c-0.803 0.636-1.992 1.708-2.844 3.08-0.117 0.184 0.014 0.496 0.194 0.454 0.641-0.136 1.37-0.237 2.068-0.211l0.366-0.34c0.173-0.95 0.382-1.844 0.637-2.689 0.082-0.266-0.421-0.294-0.421-0.294m16.217 44.873c1.163 0.547 2.949 0.603 4.311 0.522 0.163-0.01 0.292-0.274 0.192-0.388-0.617-0.723-1.47-1.325-2.033-1.67l-0.714-0.007c-0.569 0.474-1.145 0.817-1.695 1.067-0.178 0.08-0.061 0.476-0.061 0.476m0.77-5.025c-0.348 0.552-0.512 1.211 0.207 1.317 0.611 0.091 1.297-0.044 1.897-0.093 0.928-0.078 3.36-0.711 3.36-0.711 1.034-0.888-2.098-1.156-2.233-2.129-0.076-0.551 0.675-1.642 0.829-2.223 0.509-1.94 0.834-4.153 0.035-6.089-0.277-0.661-0.377-0.965-1.126-1.044-0.509-0.053-1.081-0.002-1.557 0.069-0.955 0.14-1.977 0.361-2.927 0.696-0.634 0.226-1.203 0.583-1.609 1.118-0.254 0.337-0.679 1.485-1.252 1.371-0.323-0.061-0.676-1.182-0.86-1.501-0.05-0.082-0.132-0.237-0.235-0.414-0.323-0.545-0.848-1.319-1.252-1.079-0.396 0.233-0.438 2.003-0.53 2.443-0.104 0.484-1.425 3.27-0.649 3.447 0.714 0.171 1.367-1.786 2.228-1.84 0.502-0.036 0.946 0.083 1.257 0.479 0.314 0.407 0.534 0.846 0.62 1.349 0.158 0.963-0.045 1.752 1.224 1.766 0.788 0.006 1.571-0.388 2.349-0.305 0.687 0.075 1.628 0.557 1.523 1.351-0.108 0.775-0.899 1.394-1.299 2.022m9.055-36.722c-0.144 0.057-0.298 0.079-0.451 0.033-1.007-0.31-1.783-0.76-2.343-1.171-0.136 0.97-0.395 2.311-0.861 3.514-0.607 1.576-0.185 4.829 0.034 5.943 0.051 0.288-0.08 0.578-0.329 0.726-0.25 0.144-0.565 0.121-0.792-0.067-1.224-1.019-2.025-2.896-2.483-4.326-1.221 2.184-3.519 5.278-6.066 8.722-3.683 4.974-7.854 10.613-9.326 14.287-1.274 3.177-0.447 6.037 0.643 6.881 0.412 0.328 0.644 0.163 0.74 0.09 1.013-0.737-0.5-3.264-0.959-3.904-0.133-0.18-0.169-0.416-0.097-0.629 0.074-0.218 0.256-0.375 0.471-0.438 1.278-0.352 2.447 0.21 3.204 0.747l0.184-0.025c0.691-1.659 1.652-4.431 1.457-6.136-0.028-0.252 0.082-0.502 0.292-0.647 0.211-0.144 0.489-0.157 0.713-0.04 0.101 0.056 1.934 1.034 2.886 2.549 0.795-1.043 2.23-2.052 4.543-2.143 1.39-0.053 2.57-0.221 3.435-0.338 1.416-0.2 2.132-0.298 2.495 0.313 0.333 0.569-0.11 1.167-0.326 1.452-0.395 0.531-0.461 1.706-0.193 3.705 0.267 2.021-0.297 4.22-0.938 5.616 0.923 0.262 2.337 0.822 3.356 1.955 0.165 0.186 0.22 0.443 0.146 0.677-0.079 0.234-0.274 0.412-0.515 0.46-0.033 0.007-2.814 0.593-4.942 1.631 0.938 0.661 2.246 1.779 2.7 3.15 0.07 0.192 0.04 0.403-0.062 0.577-0.102 0.17-0.279 0.288-0.479 0.319-0.451 0.077-3.812 0.57-6.176-0.329 0.075 0.892 0.022 2.024-0.463 2.901-0.121 0.211-0.338 0.346-0.578 0.354-0.248 0.021-0.475-0.112-0.602-0.317-0.018-0.019-1.393-2.133-2.995-3.007-0.554-0.301-1.481-0.553-2.558-0.834-1.77-0.473-3.896-1.04-5.725-2.192 1.167 1.212 2.182 2.899 2.457 5.19 1.634 0.758 7.651 4.065 7.505 11.424 0.91 1.213 5.723 6.508 2.603 15.336 0.012 0.065 0.231 0.81 0.398 1.97 10.383-12.717 16.083-28.636 16.083-45.122 0-9.959-2.093-19.819-6.086-28.857m-32.154 92.093 0.16 0.308c1.028 0.565 2.326 0.809 3.951 0.761 7.736-0.248 12.607-7.078 11.071-17.526-0.584-3.976-3.579-7.196-6.438-9.422-0.376-0.291-0.626-0.098-0.423 0.277 2.014 3.733 1.111 6.845 1.075 6.978-0.043 0.147-0.158 0.807-0.139 1.037 0.248 2.84-2.485 6.264-2.485 6.264 1.315 0.668 2.496 1.863 2.805 3.903 0.285 1.849-0.43 3.459-1.961 4.424-1.471 0.935-3.409 1.023-4.614 0.206-0.558-0.371-1.433-1.261-1.104-3.035 0.069-0.372 0.433-0.62 0.805-0.552 0.375 0.075 0.012 1.826 1.126 2.377 0.82 0.408 1.701 0.362 2.718-0.281 0.616-0.388 1.488-1.539 1.296-2.88-0.528-3.6-6.217-4.103-8.671-0.931-1.638 2.127-1.996 4.401-0.973 6.365 0.409 0.783 0.939 1.385 1.6 1.829 0.066-0.034 0.135-0.067 0.201-0.102m-102.1-44.251c1.392 0.032 2.25-0.604 2.3-0.642 0.398-0.304 0.96-0.269 1.318 0.086 0.027 0.025 2.846 2.782 5.45 1.87 0.379-0.132 0.798-0.024 1.064 0.272 0.024 0.025 2.381 2.573 5.106 1.668 0.478-0.161 1 0.064 1.215 0.517 0.013 0.023 1.277 2.622 4.301 3.174 0.375 0.068 0.677 0.341 0.779 0.71 0.107 0.366-0.008 0.754-0.292 1.011-0.176 0.15-4.919 3.574-2 7.156 0.862 1.058 2.319 1.353 3.465 0.974 1.495-0.493 2.492-2.374 2.548-3.117 0.043-0.518 0.479-0.92 0.996-0.92h1.456c0.306 0 0.6 0.144 0.785 0.379 0.185 0.241 0.254 0.551 0.185 0.847-0.025 0.12-0.721 2.959-3.404 4.347-2.054 1.062-4.632 0.976-7.662-0.248-1.167-0.474-2.742-0.897-3.624-0.216-0.969 0.748-0.938 2.69-0.848 3.369 0.046 0.322-0.07 0.642-0.309 0.864-0.234 0.223-0.565 0.316-0.88 0.248-0.014-0.003-0.527-0.103-1.272-0.144 13.395 18.935 35.045 30.185 58.291 30.185 10.838 0 21.607-2.486 31.28-7.203-0.658-0.55-1.216-1.202-1.618-1.971-1.274-2.447-0.826-5.421 1.13-8.004 2.893-3.83 7.101-2.962 7.699-2.813 0.774-0.734 2.132-2.505 1.902-5.209-0.294-3.341-4.983-6.895-14.608-6.787 0.098 0.183 0.108 0.404 0.026 0.6-0.104 0.237-0.332 0.398-0.595 0.408-0.334 0.023-7.168 0.346-10.969-1.956 0.161 0.712 0.353 1.419 0.529 1.771 0.128 0.253 0.082 0.555-0.097 0.766-0.193 0.208-0.487 0.289-0.748 0.192-0.191-0.064-4.55-1.661-6.141-5.441-0.59-1.401-0.719-2.907-0.391-4.5-0.341 0.321-0.688 0.66-0.989 0.997-0.196 0.229-0.522 0.297-0.792 0.177-0.278-0.124-0.441-0.417-0.409-0.715 0.025-0.185 0.477-3.818 1.683-6.438l-0.819 0.221c-0.28 0.073-0.571-0.037-0.739-0.268-0.167-0.235-0.176-0.548-0.006-0.789 0.027-0.037 2.89-3.944 2.153-7.961-0.662-3.602-2.247-5.076-3.147-5.639-0.372-0.233-0.978 0.033-1.187 0.293-0.461 0.551-1.066 1.358-1.627 2.366 0.3-0.068 0.619-0.09 0.922-0.043 0.193 0.034 0.364 0.146 0.468 0.313 0.103 0.164 0.141 0.362 0.086 0.55-0.011 0.045-1.024 3.757-1.471 6.904 0.725-0.231 1.651-0.48 2.262-0.48 0.245 0 0.48 0.128 0.596 0.343 0.122 0.212 0.122 0.473 0 0.688-0.018 0.039-1.868 3.268-2.724 6.59 0.351-0.096 0.74-0.171 1.156-0.171 0.219 0 0.421 0.104 0.553 0.279 0.129 0.173 0.172 0.399 0.104 0.603-0.036 0.155-0.897 3.032-1.937 5.182l1.153-0.22c0.222-0.038 0.453 0.034 0.612 0.192 0.162 0.155 0.23 0.386 0.195 0.606-0.059 0.345-1.562 7.501-5.371 10.55-0.174 0.14-0.104 0.62 0.141 0.741 1.584 0.79 3.874 1.825 5.08 2.192 0.311 0.099 0.513 0.411 0.483 0.742-0.041 0.326-0.313 0.581-0.642 0.605-0.043 0.005-4.635 0.33-7.586 1.418-2.249 0.827-9.425 2.325-13.116 0.227-1.127-0.639-1.575-1.861-1.921-2.947-1.479-0.048-5.888-0.189-8.348-2.89-1.581-1.715-1.857-4.278-1.521-7.108 0.032-0.275 0.223-0.503 0.485-0.579 0.265-0.083 0.552 0.009 0.726 0.219 0.013 0.017 1.442 1.686 3.758 1.837 1.572 0.101 3.195-0.515 4.831-1.847-1.202-0.839-3.966-2.447-7.098-2.106-0.292 0.034-0.571-0.126-0.693-0.394-0.128-0.266-0.068-0.583 0.142-0.79 0.153-0.135 1.857-3.573 8.538-2.024 0.172 0.036 0.451-0.243 0.403-0.443-0.417-1.829-1.529-4.817-4.404-6.303-0.287-0.151-0.43-0.478-0.349-0.794 0.086-0.311 0.388-0.525 0.706-0.51l0.686 0.038s0.36-0.25 0.201-0.397c-1.85-1.702-4.621-4.197-6.027-5.198-0.184-0.134-0.297-0.352-0.289-0.577 0.006-0.233 0.124-0.441 0.325-0.564l0.499-0.317c-0.007-0.065-0.015-0.127-0.006-0.179 0.027-0.148 0.091-0.28 0.172-0.395-0.965-1.329-2.635-3.79-2.996-5.514-0.046-0.209 0.001-0.418 0.132-0.579 0.132-0.162 0.327-0.256 0.541-0.256h0.282c0.362 0 0.262-0.393 0.262-0.393s-0.061-0.183-0.204-0.749c-0.147-0.559-0.486-0.539-0.69-0.524-2.073 0.118-6.599 0.688-8.4 3.385-2.516 3.779-5.245 10.968-5.276 11.046-0.064 0.176-0.194 0.314-0.368 0.39-1.627 0.7-5.17 1.201-6.948-1.913l-0.092-0.287-0.123 0.005c-1.141 0-2.109-0.829-2.637-2.09-0.451 0.398-0.987 0.633-1.574 0.633-1.091 0-2.022-0.801-2.516-2.006-0.389 0.244-0.826 0.383-1.296 0.383-0.559 0-1.078-0.199-1.524-0.538-0.521 1.107-1.527 1.55-2.607 1.55-1.669 0-2.894-1.448-2.894-3.665 0-1.429 0.548-2.658 1.382-3.354-0.835-0.781-1.382-2.058-1.382-3.531 0-1.984 0.978-3.622 2.368-4.165-0.247-0.609-0.388-1.317-0.388-2.071 0-0.234 0.017-0.457 0.04-0.673-0.503-0.119-4.545-0.988-7.857 0.52 0.107 2.949 0.384 5.904 0.85 8.806 0.407 2.54 0.967 5.078 1.647 7.564m15.02 14.694c-0.088-0.035-0.11-0.043 0 0m0.38 0.147c-0.186-2.842-2.71-4.665-4.054-5.444-0.144 3.522 4.054 5.444 4.054 5.444m-17.907-11.775c0.368 0.609 0.732 1.166 0.77 2.026 0.014 0.386 0.351 4.463 0.009 4.47 1.084-0.012 3.067-0.243 4.534 1.224 1.793 1.787 1.099 4.085 0.184 5.547 1.28 1.295 2.065 3.468 2.486 4.955 1.934-1.109 4.236-1.157 5.633-1.05 0.032-1.191 0.34-2.911 1.652-3.939l0.343-0.227c-1.478 0.004-3.708 0.401-5.225 2.606-0.203 0.297-0.212 0.551-0.521 0.376-0.318-0.176-0.176-0.417-0.025-0.74 0.043-0.101 0.635-2.044 2.641-3.227-1.186-0.362-2.398-1.028-2.924-2.281l-0.06-0.169c-0.93-2.255-1.792-5.134-5.732-5.561-0.344-0.039-0.804 0.001-0.818-0.341-0.017-0.332 0.221-0.636 0.562-0.702 0.036-0.007 0.258-0.05 0.611-0.05 1.352 0 4.621 0.593 6.954 5.877 0.516 1.17 1.765 1.557 2.727 1.673-1.011-1.303-1.632-3.064-1.198-5.335 0.036-0.2 0.169-0.376 0.348-0.476 0.185-0.099 0.399-0.11 0.594-0.029 0.259 0.11 5.797 2.576 5.348 7.949 0.231 0.055 1.451 0.468 1.7 0.544-1.639-2.653-0.889-5.863 0.658-7.772-1.919-0.807-3.329-2.133-3.329-3.651-1.348 0.544-2.785 0.391-4.059-0.281-1.1-0.58-1.249-1.637-2.688-1.268-2.085 0.538-4.291-0.552-5.884-1.848-0.105-0.088-2.151 0.628-2.415 0.678-1.18 0.21-2.269-0.277-3.443-0.181 0.138 0.469 0.567 1.203 0.567 1.203m3.625 12.471c0.475-0.661 1.387-2.235 0.283-3.345-0.863-0.861-1.736-1.103-2.376-1.144 0.653 1.516 1.343 3.015 2.093 4.489m14.471-81.89c-11.63 13.071-17.997 29.727-17.997 47.366 0 0.141 0.003 0.279 0.004 0.418 1.506-0.52 3.052-0.687 4.397-0.687 1.385 0 2.556 0.175 3.251 0.305-0.362-0.761-0.573-1.702-0.573-2.698 0-1.917 0.716-3.485 1.783-4.138-0.178-1.651 0.187-3.075 1.024-4.033 0.552-0.626 1.258-0.974 1.987-1.005 0.341-2.257 1.68-3.894 3.332-3.894 1.924 0 3.429 2.217 3.429 5.048l-0.07 0.348c1.684 0.304 2.989 2.03 2.989 4.107 0 0.621-0.123 1.204-0.323 1.734 1.532 0.318 2.675 2.037 2.675 4.185 0 0.417-0.052 0.813-0.134 1.2 1.42-0.211 3.014-1.329 4.473-2.719 1.206-1.147 2.4-3.48 2.468-4.648-1.424 0.492-3.585 0.575-5.143 0.187-1.788-0.448-2.961-1.623-3.461-3.406-0.413-1.456-0.198-4.997 3.755-4.729 3.556 0.24 5.201 2.314 5.975 3.803 0.178 0.343 0.324 0.697 0.441 1.055 0.155-0.117 0.301-0.244 0.44-0.373 1.422-1.325 2.134-3.081 2.067-5.079-0.208 0.107-0.424 0.192-0.643 0.265-2.163 0.68-4.291 0.34-5.416-0.877-0.828-0.882-1.008-2.107-0.508-3.361 0.574-1.445 2.201-2.197 4.047-1.868 1.283 0.226 2.592 0.996 3.465 2.297 0.371-0.581 0.646-1.243 0.794-1.923 0.248-1.145 0.647-3.556-1.569-5.525-0.411-0.374-0.767-0.807-0.394-1.219 0.194-0.222 0.461-0.333 0.736-0.333 0.237 0 0.478 0.087 0.668 0.256 2.198 1.959 3.088 4.532 2.506 7.239-0.293 1.375-0.964 2.65-1.851 3.631 0.091 0.421 0.145 0.871 0.164 1.345 0.077 2.56-0.883 4.903-2.706 6.607-0.424 0.398-0.89 0.756-1.385 1.066 0.11 1.843-1.397 4.296-2.332 5.472-2.541 3.208-3.692 3.509-5.442 4.637 0.808 0.744 1.333 1.975 1.333 3.398 0 0.624-0.106 1.204-0.283 1.735 1.096-1.489 2.09-4.123 2.438-5.185 0.066-0.231 0.257-0.4 0.485-0.459 0.227-0.061 0.472 0.002 0.643 0.169l0.321 0.304s0.365-0.065 0.411-0.237c0.278-1.04 0.712-2.005 0.844-2.291 0.099-0.215 0.309-0.364 0.544-0.393 0.243-0.028 0.474 0.065 0.613 0.256l0.175 0.212s0.31 0.008 0.337-0.146c0.318-1.579 0.874-2.973 0.908-3.057 0.113-0.283 0.412-0.455 0.712-0.425 0.312 0.034 0.555 0.266 0.611 0.571 0.014 0.121 0.095 0.266 0.208 0.427 0.119 0.159 0.499 0.175 0.54 0.011 0.359-1.555 0.972-3.088 1.013-3.174 0.119-0.308 0.444-0.488 0.767-0.417 0.324 0.063 0.554 0.344 0.554 0.675 0 0.126 0.06 0.298 0.148 0.495 0.058 0.128 0.338 0.046 0.4-0.138 0.601-1.743 1.571-3.502 1.734-3.774 0.149-0.27 0.462-0.395 0.764-0.321 0.299 0.077 0.506 0.347 0.523 0.657 0.005 0.174 0.183 0.614 0.465 1.182 0.086 0.174 0.449 0.121 0.532-0.094 0.496-1.288 1.041-2.566 1.082-2.655 0.106-0.24 0.346-0.409 0.609-0.416 0.764-0.028 0.778 1.028 1.296 1.384 0.716 0.504 1.214 0.041 1.555-0.626 0.209-0.405 0.258-1.038 0.55-1.32 0.294-0.296 0.838-0.123 1.105-0.422 0.209-0.238 0.182-0.887 0.251-1.199 0.272-1.218 0.721-2.419 1.081-3.611 0.584-1.888 1.235-4.014 1.786-6.017 1.339-4.856 0.621-14.143-2.794-16.419-3.412-2.272-7.136 0.646-7.288 0.777-0.203 0.161-0.477 0.191-0.713 0.091-3.759-1.656-4.923-4.96-5.192-5.909-1.135-0.966-1.519-2.569-1.645-3.695h-16.346zm129.49 47.39c0-12.72-3.152-24.714-8.694-35.263-1.14 0.348-2.369 0.353-3.25 0.28 5.821 10.66 8.899 22.742 8.899 34.965 0 17.462-6.248 34.303-17.588 47.531 0.022 1.628-0.18 3.542-0.891 5.448 13.306-13.71 21.524-32.388 21.524-52.96m-7.603-36.841c0.155 0.114 0.277 0.268 0.303 0.463 0.002 0.029-0.012 0.062-0.02 0.093 5.744 10.842 9.01 23.187 9.01 36.285 0 42.899-34.901 77.8-77.801 77.8-26.842 0-51.441-13.561-65.806-36.279-2.318-3.663-4.325-7.548-5.997-11.546-0.007-0.006-0.016-0.006-0.024-0.012-0.271-0.194-0.423-0.509-0.41-0.835 0.001-0.048 0.137-3.982-1.012-6.142-0.296-0.549-0.715-1.111-1.235-1.724-4.662-5.444-4.36-10.83-3.019-14.471-0.192-2.239-0.296-4.521-0.296-6.791 0-42.899 34.9-77.801 77.799-77.801 29.579 0 55.351 16.593 68.508 40.96" fill="#fff"/></g><g id="g100" transform="translate(87.646 33.287)"><path id="path102" d="m0 0v9.979h-1.123l-3.679-1.19v-0.847l2.407 0.36 0.166-0.227v-7.995l-0.212-0.291h-1.71v-0.927h5.941v0.811h-1.628l-0.162 0.327z" fill="#fff"/></g><g id="g104" transform="translate(95.462 32.929)"><path id="path106" d="m0 0c-1.271 0-2.181 0.96-2.181 2.312 0 0.796 0.259 1.335 1.009 2.018 2.294-0.863 3.108-1.563 3.108-2.62 0-1.009-0.796-1.71-1.936-1.71m0 9.358c1.009 0 1.708-0.814 1.708-1.968 0-0.8-0.243-1.385-0.845-2.002-1.873 0.813-2.444 1.335-2.444 2.36 0 0.927 0.669 1.61 1.581 1.61m1.626-4.345c1.368 0.65 1.938 1.416 1.938 2.554 0 1.646-1.401 2.77-3.467 2.77-2.23 0-3.728-1.238-3.728-3.095 0-1.154 0.538-1.935 1.726-2.521-1.481-0.472-2.197-1.321-2.197-2.589 0-1.84 1.627-3.108 4.003-3.108 2.473 0 4.086 1.253 4.086 3.173 0 1.352-0.7 2.18-2.361 2.816" fill="#fff"/></g><g id="g108" transform="translate(104.92 32.929)"><path id="path110" d="m0 0c-1.27 0-2.181 0.96-2.181 2.312 0 0.796 0.259 1.335 1.009 2.018 2.295-0.863 3.109-1.563 3.109-2.62 0-1.009-0.797-1.71-1.937-1.71m0 9.358c1.009 0 1.709-0.814 1.709-1.968 0-0.8-0.243-1.385-0.846-2.002-1.873 0.813-2.442 1.335-2.442 2.36 0 0.927 0.668 1.61 1.579 1.61m1.627-4.345c1.369 0.65 1.937 1.416 1.937 2.554 0 1.646-1.4 2.77-3.468 2.77-2.229 0-3.725-1.238-3.725-3.095 0-1.154 0.535-1.935 1.725-2.521-1.482-0.472-2.197-1.321-2.197-2.589 0-1.84 1.626-3.108 4.003-3.108 2.474 0 4.087 1.253 4.087 3.173 0 1.352-0.7 2.18-2.362 2.816" fill="#fff"/></g><g id="g112" transform="translate(116.19 37.372)"><path id="path114" d="m0 0c-0.587-0.26-0.962-0.358-1.449-0.358-1.466 0-2.31 0.958-2.31 2.62 0 1.595 0.763 2.685 1.905 2.685 1.235 0 2-1.269 2-3.351 0-0.571-0.033-0.996-0.146-1.596m-1.711 5.893c-2.489 0-4.198-1.612-4.198-3.956 0-2.067 1.383-3.533 3.354-3.533 0.747 0 1.512 0.211 2.326 0.636-0.619-1.727-1.838-2.915-3.971-3.925l-0.733-0.128 0.44-1.073c4.33 1.431 6.787 4.198 6.787 7.696 0 2.638-1.53 4.283-4.005 4.283" fill="#fff"/></g><g id="g116" transform="translate(28.262 56.177)"><path id="path118" d="m0 0-0.223-1.203c0.337-0.45 0.906-0.527 1.378-0.253 0.276 0.157 0.401 0.373 0.46 0.565 0.068 0.222 0.089 0.549-0.16 0.982-0.192 0.335-0.438 0.533-0.756 0.652-0.49 0.189-0.972 0.12-1.387 0.067l-1.17-0.153c-0.282-0.033-0.571-0.055-0.811 0.045-0.271 0.104-0.417 0.333-0.496 0.471l-0.256 0.445 2.106 1.212 0.237-0.072 0.368-0.548 0.571 0.33-1.893 3.283-0.57-0.329 0.333-0.672-0.054-0.242-5.046-2.908-0.277 0.052-0.415 0.625-0.57-0.327 1.893-3.286 0.57 0.329-0.289 0.593 0.096 0.264 2.214 1.275 0.152-0.265c0.08-0.136 0.157-0.341 0.096-0.599-0.056-0.244-0.231-0.487-0.381-0.678l-1.416-1.839-0.385-0.22 1.486-2.578 0.569 0.328-0.338 0.722 0.051 0.278 0.977 1.376c0.183 0.25 0.438 0.671 0.544 1.191 0.085 0.442 0.045 0.785-0.071 1.1l0.02 0.01c0.297-0.22 0.659-0.301 1.323-0.205l0.98 0.145c0.171 0.019 0.281 0.057 0.54 0.037" fill="#fff"/></g><g id="g120" transform="translate(34.577 47.034)"><path id="path122" d="m0 0c-0.109-0.316-0.392-0.655-0.713-0.911-0.452-0.358-0.96-0.54-1.363-0.454-0.426 0.083-0.763 0.454-0.982 0.73l-0.055 0.071 2.599 2.057 0.29-0.366c0.331-0.421 0.332-0.822 0.224-1.127m1.548-0.527c-0.048 0.297-0.215 0.931-1.012 1.939l-2.28 2.885-0.518-0.408 0.456-0.653-0.041-0.221-4.569-3.614-0.303 0.035-0.486 0.544-0.518-0.41 2.465-3.118 0.518 0.409-0.487 0.685 0.065 0.271 1.442 1.139c0.11-0.172 0.248-0.366 0.388-0.546 0.579-0.729 1.301-1.333 2.052-1.475 0.45-0.094 1.171-0.09 1.981 0.551 0.643 0.509 0.988 1.131 0.847 1.987" fill="#fff"/></g><g id="g124" transform="translate(45.205 37.835)"><path id="path126" d="m0 0-0.442-0.486 0.471-0.493 0.02-0.248-3.925-4.302-0.281-0.036-0.533 0.425-0.444-0.487 2.784-2.54 0.445 0.487-0.492 0.507 0.013 0.283 3.925 4.303 0.249 0.002 0.552-0.441 0.442 0.487l-2.784 2.539z" fill="#fff"/></g><g id="g128" transform="translate(40.069 35.206)"><path id="path130" d="m0 0c-0.235-0.259-0.561-0.533-0.962-0.565-0.446-0.038-0.797 0.219-1.056 0.456-0.152 0.138-0.277 0.268-0.371 0.369l1.974 2.164c0.173-0.098 0.339-0.219 0.508-0.371 0.225-0.206 0.463-0.469 0.472-0.862 0.015-0.321-0.143-0.73-0.565-1.191m2.136 0.604c-0.115 0.735-0.598 1.298-1.033 1.697-0.253 0.229-0.62 0.534-0.937 0.76l1.454 1.592 0.258-0.002 0.592-0.481 0.443 0.486-2.857 2.61-0.445-0.486 0.497-0.516 0.019-0.246-3.925-4.303-0.28-0.039-0.558 0.448-0.443-0.485 3.085-2.817c0.797-0.726 1.473-0.896 1.898-0.901 0.369 0.002 0.991 0.128 1.587 0.782 0.712 0.778 0.701 1.526 0.645 1.901" fill="#fff"/></g><g id="g132" transform="translate(57.3 28.644)"><path id="path134" d="m0 0-3.842-3.228 1.184 4.868 0.175 0.281-3.116 1.939-0.347-0.56 0.651-0.459 0.024-0.217-3.079-4.947l-0.229-0.112-0.697 0.384-0.35-0.56 2.411-1.5 0.347 0.558-0.612 0.435-0.001 0.257 3.096 4.975 0.021-0.011-1.694-6.934 0.973-0.608 5.475 4.582 0.019-0.013-3.097-4.975-0.202-0.131-0.621 0.335-0.346-0.56 3.123-1.945 0.348 0.558-0.699 0.491-0.003 0.255 3.08 4.947 0.206 0.073 0.746-0.409 0.35 0.557-3.126 1.946-0.168-0.272z" fill="#fff"/></g><g id="g136" transform="translate(73.669 19.614)"><path id="path138" d="m0 0c-0.895 0.296-1.812-0.168-2.098-1.04-0.28-0.853 0.18-1.782 1.042-2.063 0.863-0.286 1.794 0.185 2.079 1.047 0.279 0.852-0.181 1.781-1.023 2.056" fill="#fff"/></g><g id="g140" transform="translate(92.951 12.023)"><path id="path142" d="m0 0c-0.035-0.375-0.102-0.742-0.437-1.02-0.349-0.297-0.771-0.302-1.156-0.268-0.145 0.015-0.315 0.032-0.517 0.074l0.267 2.814c0.197 0.027 0.39 0.03 0.627 0.008 0.318-0.03 0.654-0.095 0.91-0.383 0.362-0.399 0.339-0.887 0.306-1.225m-0.633 2.352c-0.339 0.033-0.803 0.043-1.136 0.039l0.231 2.431 2.102-0.199 0.169-0.151 0.05-1.387 1.063-0.103 0.215 2.273-6.432 0.61-0.063-0.656 0.71-0.111 0.163-0.188-0.548-5.798-0.202-0.198-0.716 0.022-0.061-0.655 4.159-0.394c0.983-0.095 1.731 0.086 2.194 0.407 0.598 0.411 0.781 1.021 0.828 1.53 0.075 0.791-0.154 1.371-0.693 1.821-0.56 0.474-1.342 0.641-2.033 0.707" fill="#fff"/></g><g id="g144" transform="translate(102.88 12.923)"><path id="path146" d="m0 0 0.768 2.556 1.047-2.46-1.815-0.096zm4.996-2.314-2.985 6.786-1.634-0.085l-2.239-7.096-0.736-0.084 0.034-0.657 2.733 0.139-0.034 0.66-0.73 0.04-0.119 0.132 0.481 1.706 2.416 0.125 0.686-1.66-0.081-0.151-0.769-0.097 0.034-0.659 3.674 0.189-0.033 0.657-0.698 0.055z" fill="#fff"/></g><g id="g148" transform="translate(120.9 12.715)"><path id="path150" d="m0 0-0.221 0.176-1.159 5.708 0.145 0.203 0.68 0.184-0.131 0.646-6.321-1.281 0.132-0.646 0.952 0.101 0.212-0.133c0.128-0.794 0.258-1.952 0.264-2.897 0.02-1.411-0.22-2.167-0.482-2.705l-0.904 0.51c-0.317-0.088-0.497-0.286-0.586-0.42-0.115-0.175-0.214-0.438-0.137-0.816 0.089-0.433 0.326-0.629 0.529-0.715 0.216-0.095 0.473-0.102 0.729-0.049 0.411 0.085 0.717 0.285 0.978 0.605 0.482 0.584 0.887 1.674 0.892 3.424-0.002 0.915-0.135 2.323-0.309 3.412l1.357 0.278 1.179-5.811-0.136-0.249-0.772-0.2 0.132-0.645 3.805 0.771-0.131 0.645-0.697-0.096z" fill="#fff"/></g><g id="g152" transform="translate(128.33 17.639)"><path id="path154" d="m0 0-0.007 2.667 1.716-2.05-1.709-0.617zm5.455-0.756-4.831 5.617-1.538-0.554-0.077-7.442-0.681-0.294 0.225-0.618 2.573 0.929-0.223 0.619-0.709-0.173-0.155 0.091-0.036 1.773 2.275 0.822 1.141-1.386-0.035-0.171-0.707-0.315 0.222-0.619 3.461 1.25-0.223 0.618-0.682-0.147z" fill="#fff"/></g><g id="g156" transform="translate(145.71 22.766)"><path id="path158" d="m0 0-0.276 0.056-1.349 1.013c-0.245 0.191-0.659 0.457-1.176 0.577-0.44 0.097-0.784 0.066-1.102-0.042l-0.01 0.02c0.229 0.292 0.318 0.651 0.24 1.318l-0.118 0.983c-0.017 0.173-0.051 0.283-0.022 0.541l1.195-0.253c0.458 0.323 0.551 0.892 0.292 1.37-0.153 0.281-0.364 0.411-0.555 0.474-0.221 0.075-0.547 0.104-0.984-0.132-0.341-0.184-0.548-0.427-0.673-0.738-0.203-0.487-0.148-0.97-0.103-1.387l0.12-1.174c0.025-0.284 0.04-0.572-0.065-0.811-0.112-0.268-0.347-0.406-0.485-0.481l-0.45-0.245-1.159 2.137 0.079 0.234 0.558 0.354-0.313 0.58-3.333-1.806 0.311-0.579 0.682 0.316 0.24-0.062 2.774-5.122-0.056-0.276-0.637-0.398 0.314-0.578 3.334 1.807-0.314 0.578-0.601-0.273-0.261 0.103-1.218 2.245 0.269 0.148c0.139 0.074 0.345 0.146 0.601 0.08 0.242-0.064 0.481-0.244 0.67-0.401l1.8-1.463 0.212-0.391 2.615 1.418-0.313 0.578-0.733-0.318z" fill="#fff"/></g><g id="g160" transform="translate(156.76 30.468)"><path id="path162" d="m0 0-0.275 0.062-3.525 4.643 0.039 0.244 0.536 0.463-0.399 0.525-5.139-3.905 0.399-0.522 0.816 0.505 0.247-0.028c0.46-0.661 1.08-1.647 1.497-2.499 0.631-1.262 0.742-2.047 0.742-2.648l-1.036 0.069c-0.249-0.218-0.324-0.473-0.346-0.633-0.029-0.206-0.001-0.487 0.231-0.796 0.27-0.348 0.567-0.421 0.787-0.413 0.237 0.01 0.471 0.114 0.678 0.272 0.335 0.254 0.524 0.569 0.619 0.968 0.183 0.738 0.073 1.897-0.683 3.474-0.4 0.827-1.133 2.037-1.765 2.944l1.104 0.836 3.587-4.722-0.014-0.28-0.607-0.518 0.398-0.525 3.095 2.348-0.398 0.527-0.588-0.391z" fill="#fff"/></g><g id="g164" transform="translate(161.34 38.182)"><path id="path166" d="m0 0-1.172 2.393 2.441-1.091-1.269-1.302zm5.236 1.701-6.799 2.942-1.138-1.172 3.18-6.722-0.484-0.563 0.472-0.457 1.909 1.961-0.472 0.457-0.563-0.465-0.177 0.014-0.809 1.579 1.688 1.733 1.632-0.751 0.042-0.167-0.499-0.593 0.471-0.459 2.568 2.637-0.473 0.457-0.548-0.431z" fill="#fff"/></g><g id="g168" transform="translate(172.14 46.786)"><path id="path170" d="m0 0-2.27 1.647 0.213 0.294c0.107 0.146 0.468 0.627 0.904 0.804 0.474 0.187 0.892 0.011 1.233-0.235 0.175-0.129 0.522-0.406 0.613-0.839 0.131-0.612-0.302-1.211-0.693-1.671m-2.895 2.099-2.087 1.513 0.174 0.239c0.178 0.249 0.454 0.568 0.819 0.667 0.398 0.104 0.756-0.082 1.002-0.262 0.295-0.214 0.535-0.501 0.606-0.791 0.073-0.32-0.018-0.799-0.514-1.366m4.172 2.137c-0.664 0.479-1.159 0.434-1.524 0.318-0.58-0.18-1.051-0.697-1.238-0.937l-0.019 0.011c0.215 0.417 0.321 0.89 0.199 1.457-0.097 0.445-0.295 0.716-0.627 0.956-0.506 0.367-1.009 0.426-1.515 0.229-0.522-0.196-1.025-0.715-1.417-1.257l-2.393-3.3 0.535-0.387 0.454 0.552 0.246 0.048 4.717-3.417 0.067-0.276-0.383-0.606 0.532-0.385 2.446 3.371c0.214 0.296 0.796 1.139 0.785 2.029-0.007 0.591-0.241 1.14-0.865 1.594" fill="#fff"/></g><g id="g172" transform="translate(176.46 58.346)"><path id="path174" d="m0 0-1.807 1.959 2.651-0.352-0.844-1.607zm4.533 3.122-7.357 0.883-0.759-1.449 4.968-5.54-0.303-0.674 0.584-0.305 1.27 2.42-0.583 0.309-0.407-0.606-0.175-0.038-1.224 1.281 1.124 2.143 1.777-0.253 0.089-0.148-0.308-0.711 0.583-0.305 1.707 3.259-0.583 0.307-0.403-0.573z" fill="#fff"/></g></g></g></g></svg>
