<?xml version="1.0" encoding="UTF-8"?><!DOCTYPE svg PUBLIC "-//W3C//DTD SVG 1.1//EN" "http://www.w3.org/Graphics/SVG/1.1/DTD/svg11.dtd"><svg xmlns="http://www.w3.org/2000/svg"><symbol id="icon-facebook" viewBox="0 0 144.083 144">
    <path d="M72.041 11.166c-33.543 0-60.833 27.29-60.833 60.834 0 33.545 27.29 60.834 60.833 60.834 33.544 0 60.835-27.289 60.835-60.834-.001-33.544-27.292-60.834-60.835-60.834zm0 115.668c-30.235 0-54.833-24.598-54.833-54.834 0-30.235 24.598-54.834 54.833-54.834S126.876 41.765 126.876 72c-.001 30.236-24.6 54.834-54.835 54.834z"/>
    <path d="M90.792 36.304H77.596a.877.877 0 0 0-.09.004c-13.323.042-15.063 9.345-15.07 17.476a1.014 1.014 0 0 0-.028.235v5.708H53.29a1 1 0 0 0-1 1v14.077a1 1 0 0 0 1 1h9.118v30.891a1 1 0 0 0 1 1h13.307a1 1 0 0 0 1-1v-30.89h13.076a1 1 0 0 0 1-1V60.728a1 1 0 0 0-1-1H76.715v-7.567h14.076a1 1 0 0 0 1-1V37.304a.999.999 0 0 0-.999-1z"/>
</symbol><symbol id="icon-instagram" viewBox="0 0 144.083 144">
    <path d="M72.041 11.166c-33.543 0-60.833 27.29-60.833 60.834 0 33.544 27.29 60.834 60.833 60.834 33.544 0 60.834-27.29 60.834-60.834 0-33.544-27.291-60.834-60.834-60.834zm0 115.668c-30.235 0-54.833-24.599-54.833-54.834 0-30.235 24.598-54.834 54.833-54.834S126.875 41.765 126.875 72c0 30.235-24.599 54.834-54.834 54.834z"/>
    <path d="M91.076 42.701h-38.07c-5.615 0-10.184 4.568-10.184 10.184V91.13c0 5.615 4.568 10.184 10.184 10.184h38.069c5.615 0 10.184-4.568 10.184-10.184V52.884c0-5.615-4.568-10.183-10.183-10.183zM80.847 71.899c0 4.856-3.95 8.806-8.806 8.806s-8.806-3.95-8.806-8.806c0-2.409.974-4.593 2.546-6.184H78.3a8.767 8.767 0 0 1 2.547 6.184zm2.553-21.05h8.92v9.189H83.4v-9.189zm7.676 44.464h-38.07a4.189 4.189 0 0 1-4.184-4.184V65.715h9.784a14.699 14.699 0 0 0-1.371 6.184c0 8.165 6.642 14.806 14.806 14.806s14.806-6.642 14.806-14.806c0-2.209-.5-4.299-1.371-6.184h9.783v25.414a4.189 4.189 0 0 1-4.183 4.184z"/>
</symbol><symbol id="icon-list" viewBox="0 0 24 24">
    <title/>
    <g fill-rule="evenodd">
        <path d="M1.5 6c-.276 0-.5.214-.5.505v.99c0 .279.218.505.5.505h21c.276 0 .5-.214.5-.505v-.99A.499.499 0 0 0 22.5 6h-21zm0 5c-.276 0-.5.214-.5.505v.99c0 .279.218.505.5.505h21c.276 0 .5-.214.5-.505v-.99a.499.499 0 0 0-.5-.505h-21zm0 5c-.276 0-.5.214-.5.505v.99c0 .279.218.505.5.505h21c.276 0 .5-.214.5-.505v-.99a.499.499 0 0 0-.5-.505h-21z"/>
    </g>
</symbol><symbol id="icon-marker" viewBox="0 0 24 24">
    <path d="M11.513 12.38c-2.117 0-3.835-1.729-3.835-3.862 0-2.135 1.718-3.863 3.835-3.863s3.835 1.729 3.835 3.863c0 2.132-1.718 3.862-3.835 3.862m0-12.38C6.825 0 3.025 3.827 3.025 8.549c0 4.46 3.844 10.213 6.411 13.014.959 1.045 2.076 2.454 2.076 2.454s1.2-1.417 2.229-2.493C16.306 18.84 20 13.451 20 8.549 20 3.827 16.2 0 11.513 0"/>
</symbol><symbol id="icon-pinterest" viewBox="0 0 144.083 144">
    <path d="M72.04 11.166c-33.543 0-60.833 27.29-60.833 60.834s27.29 60.834 60.833 60.834c33.544 0 60.835-27.29 60.835-60.834S105.584 11.166 72.04 11.166zm0 115.668c-30.235 0-54.833-24.599-54.833-54.834S41.805 17.166 72.04 17.166c30.237 0 54.835 24.599 54.835 54.834s-24.598 54.834-54.835 54.834z"/>
    <path d="M83.604 37.343c-16.462-3.048-24.794 1.626-29.597 5.285-4.802 3.658-10.213 10.289-9.755 21.874.457 11.586 9.907 13.262 9.907 13.262s1.067-2.059 1.296-3.43c.229-1.373.152-2.744-1.524-5.107-3.353-5.335-.686-14.938 2.896-18.444 3.397-3.326 8.536-8.079 19.664-7.317 13.197.904 13.033 15.701 13.033 15.701-.152 9.222-1.524 11.889-5.031 17.759-4.344 5.791-12.042 4.115-13.489 2.057-2.363-3.658.457-10.365 2.133-17.225 1.678-6.859-.381-7.698-1.524-8.765-1.144-1.067-7.012-2.591-10.137 4.116-3.125 6.706.076 12.804.076 12.804s-.99 4.345-3.507 13.642c-2.515 9.299-3.353 19.818-2.058 24.086 3.583-2.135 6.098-6.783 7.927-11.51 1.829-4.725 3.049-12.271 3.43-12.576.609.764 5.03 3.432 5.03 3.432 3.43 1.676 9.375 1.676 14.938-1.068 5.564-2.744 11.586-12.347 12.271-20.578 1.753-15.701-5.106-25.05-15.979-27.998z"/>
</symbol><symbol id="icon-twitter" viewBox="0 0 144.083 144">
    <path d="M72.041 11.166c-33.543 0-60.833 27.29-60.833 60.834 0 33.545 27.29 60.834 60.833 60.834 33.544 0 60.835-27.289 60.835-60.834-.001-33.544-27.292-60.834-60.835-60.834zm0 115.668c-30.235 0-54.833-24.598-54.833-54.834 0-30.235 24.598-54.834 54.833-54.834S126.876 41.765 126.876 72c-.001 30.236-24.6 54.834-54.835 54.834z"/>
    <path d="M99.208 52.18c1.398-.722 4.746-2.867 6.324-7.471 0 0-3.803 2.75-8.979 3.074l-.094.052a14.453 14.453 0 0 0-10.688-4.703c-8.008 0-14.499 6.492-14.499 14.5 0 1.215.151 2.395.434 3.523l-.07-.105s-15.53.89-30.171-15.127c0 0-6.473 11.001 4.61 19.414-2.427.404-6.713-1.78-6.713-1.78s.242 11.566 11.728 14.398c-1.86.486-5.339.646-6.471.162 0 0 1.698 8.816 13.428 10.354-2.993 1.699-8.574 6.875-21.194 5.904 0 0 9.062 7.441 25.887 6.391s29.04-12.377 33.974-24.348c4.934-11.971 3.561-18.787 3.561-18.787s4.123-2.164 6.957-7.34c-1.309.392-6.164 1.578-7.971 2.017a4.897 4.897 0 0 1-.053-.128z"/>
</symbol></svg>